<svg width="20" height="20" viewBox="0 0 20 20" fill="none" xmlns="http://www.w3.org/2000/svg">
<g clip-path="url(#clip0_467_670)">
<path d="M16.25 4.30445V2.74323C16.25 2.42943 15.9956 2.17505 15.6818 2.17505H7.10255C6.95649 2.17505 6.81604 2.2313 6.71036 2.33212L3.92599 4.98832C3.8136 5.09554 3.75 5.2441 3.75 5.39944V17.3644C3.75 17.6782 4.00438 17.9326 4.31818 17.9326H15.6818C15.9956 17.9326 16.25 17.6782 16.25 17.3644V4.30445Z" fill="#0C2E79"/>
<path d="M7.70801 3.64996V6.04548" stroke="white" stroke-width="1.13636" stroke-miterlimit="10"/>
<path d="M8.27732 6.39557H5.31934" stroke="white" stroke-width="1.13636" stroke-miterlimit="10"/>
<path d="M6.15625 14L8.11719 8.34375H9.625L11.5781 14H10.3203L9.89453 12.6953H7.84766L7.42188 14H6.15625ZM9.59766 11.7812L8.89062 9.61719H8.85156L8.14453 11.7812H9.59766ZM13.2706 14H12.0988V8.34375H13.2706V14Z" fill="white"/>
</g>
<defs>
<clipPath id="clip0_467_670">
<rect x="3" y="2" width="14" height="16" rx="0.568182" fill="white"/>
</clipPath>
</defs>
</svg>
