<svg width="40" height="40" viewBox="0 0 40 40" fill="none" xmlns="http://www.w3.org/2000/svg">
<path d="M19.9997 38C25.0473 38 29.1392 29.9411 29.1392 19.9999C29.1392 10.0588 25.0473 1.99988 19.9997 1.99988C14.9521 1.99988 10.8602 10.0588 10.8602 19.9999C10.8602 29.9411 14.9521 38 19.9997 38Z" stroke="#949EDA" stroke-width="2" stroke-miterlimit="10"/>
<path d="M24.67 27.0281C15.1284 32.109 5.29429 33.0827 2.71695 29.2045C0.139608 25.3181 5.77868 18.0526 15.3203 12.9717C24.862 7.89079 34.6961 6.91715 37.2734 10.7953C39.8508 14.6817 34.2117 21.9472 24.67 27.0281Z" stroke="#949EDA" stroke-width="2" stroke-miterlimit="10"/>
<path d="M24.6883 12.9799C34.2208 18.0772 39.8508 25.3591 37.2551 29.2372C34.6687 33.1154 24.8437 32.1254 15.3112 27.0281C5.77868 21.9227 0.148748 14.6408 2.74437 10.7626C5.33085 6.88445 15.165 7.87445 24.6883 12.9717V12.9799Z" stroke="#949EDA" stroke-width="2" stroke-miterlimit="10"/>
<path d="M19.9997 22.4545C21.514 22.4545 22.7416 21.3556 22.7416 20C22.7416 18.6444 21.514 17.5454 19.9997 17.5454C18.4854 17.5454 17.2579 18.6444 17.2579 20C17.2579 21.3556 18.4854 22.4545 19.9997 22.4545Z" stroke="#949EDA" stroke-width="2" stroke-miterlimit="10"/>
</svg>
