<svg width="20" height="20" viewBox="0 0 20 20" fill="none" xmlns="http://www.w3.org/2000/svg">
<g clip-path="url(#clip0_467_708)">
<path d="M13.0449 8.40154V6.86591L11.7615 6.68645C11.6496 6.16641 11.4496 5.67901 11.1758 5.24463L11.9594 4.19232L10.8939 3.10535L9.86239 3.90478C9.43659 3.62539 8.96082 3.42145 8.44906 3.30725L8.27314 1.99799H6.76785L6.59193 3.30725C6.08217 3.42145 5.6044 3.62539 5.1786 3.90478L4.14708 3.10535L3.08158 4.19232L3.86521 5.24463C3.59134 5.67901 3.39144 6.16437 3.27949 6.68645L1.99609 6.86591V8.40154L3.27949 8.581C3.39144 9.10103 3.59134 9.58844 3.86521 10.0228L3.08158 11.0751L4.14708 12.1621L5.1786 11.3627C5.6044 11.6421 6.08017 11.846 6.59193 11.9602L6.76785 13.2695H8.27314L8.44906 11.9602C8.95882 11.846 9.43659 11.6421 9.86239 11.3627L10.8939 12.1621L11.9594 11.0751L11.1758 10.0228C11.4496 9.58844 11.6496 9.10307 11.7615 8.581L13.0449 8.40154ZM7.52149 9.31312C6.61192 9.31312 5.87427 8.56061 5.87427 7.6327C5.87427 6.7048 6.61192 5.95228 7.52149 5.95228C8.43107 5.95228 9.16872 6.7048 9.16872 7.6327C9.16872 8.56061 8.43107 9.31312 7.52149 9.31312Z" fill="#0C2E79"/>
<path d="M18.9163 13.2572L18.4165 12.1417L17.427 12.4476C17.1771 12.107 16.8713 11.8235 16.5314 11.6012L16.7573 10.5714L15.6299 10.1451L15.1421 11.0751C14.7423 11.018 14.3305 11.0302 13.9227 11.12L13.3689 10.2288L12.2754 10.7386L12.5753 11.7481C12.2415 12.003 11.9636 12.313 11.7457 12.6617L10.7362 12.4313L10.3184 13.5814L11.2299 14.079C11.174 14.4869 11.186 14.907 11.2739 15.323L10.4003 15.8879L10.9001 17.0035L11.8896 16.6976C12.1395 17.0381 12.4434 17.3216 12.7852 17.5439L12.5593 18.5738L13.6868 19L14.1745 18.07C14.5744 18.1271 14.9862 18.1149 15.394 18.0252L15.9477 18.9164L17.0412 18.4065L16.7413 17.3971C17.0752 17.1421 17.353 16.8322 17.5709 16.4834L18.5805 16.7139L18.9983 15.5637L18.0867 15.0661C18.1427 14.6582 18.1307 14.2381 18.0427 13.8221L18.9163 13.2572ZM15.2081 15.7921C14.5484 16.1 13.7687 15.8043 13.4669 15.1313C13.165 14.4584 13.4549 13.663 14.1146 13.3551C14.7743 13.0471 15.5539 13.3428 15.8558 14.0158C16.1576 14.6888 15.8677 15.4842 15.2081 15.7921Z" fill="#0C2E79"/>
</g>
<defs>
<clipPath id="clip0_467_708">
<rect width="17" height="17" fill="white" transform="translate(2 2)"/>
</clipPath>
</defs>
</svg>
