<svg width="16" height="16" viewBox="0 0 16 16" fill="none" xmlns="http://www.w3.org/2000/svg">
<g clip-path="url(#clip0_155_4681)">
<path d="M2.38095 1.14289V14.8572C2.38095 15.2762 2.72381 15.6191 3.14286 15.6191H13.0476C13.4667 15.6191 13.8095 15.2762 13.8095 14.8572V3.80955L10.381 0.380981H3.14286C2.72381 0.380981 2.38095 0.723839 2.38095 1.14289Z" stroke="#2862AB" stroke-miterlimit="10"/>
<path d="M13.8095 3.80955L10.381 0.380981V3.04765C10.381 3.4667 10.7238 3.80955 11.1429 3.80955H13.8095Z" stroke="#2862AB" stroke-linejoin="round"/>
<path d="M6.95237 10.6667C8.42513 10.6667 9.61904 9.4728 9.61904 8.00004C9.61904 6.52728 8.42513 5.33337 6.95237 5.33337C5.47961 5.33337 4.28571 6.52728 4.28571 8.00004C4.28571 9.4728 5.47961 10.6667 6.95237 10.6667Z" stroke="#2862AB" stroke-miterlimit="10"/>
<path d="M5.42859 8.00001C5.42859 7.1581 6.11049 6.4762 6.9524 6.4762" stroke="#2862AB" stroke-miterlimit="10"/>
<path d="M8.85715 9.90479L11.5238 12.5715" stroke="#2862AB" stroke-miterlimit="10"/>
</g>
<defs>
<clipPath id="clip0_155_4681">
<rect width="16" height="16" fill="white"/>
</clipPath>
</defs>
</svg>
