<svg width="20" height="20" viewBox="0 0 20 20" fill="none" xmlns="http://www.w3.org/2000/svg">
<g clip-path="url(#clip0_467_658)">
<path d="M15.5 5.11503V3.6869C15.5 3.3731 15.2456 3.11871 14.9318 3.11871H6.34201C6.20226 3.11871 6.06741 3.17022 5.96324 3.26338L3.18941 5.74415C3.06889 5.85194 3 6.00598 3 6.16767V17.3233C3 17.6371 3.25438 17.8914 3.56818 17.8914H14.9318C15.2456 17.8914 15.5 17.6371 15.5 17.3233V5.11503Z" fill="white"/>
<path d="M6.95801 4.5014V6.7472" stroke="#0C2E79" stroke-width="1.13636" stroke-miterlimit="10"/>
<path d="M7.52732 7.07544H4.56934" stroke="#0C2E79" stroke-width="1.13636" stroke-miterlimit="10"/>
</g>
<g clip-path="url(#clip1_467_658)">
<path d="M17.938 9.50293L11.9195 14.3779L11.1738 16.6095L13.4002 15.8639L19.3755 11.0967L17.938 9.50293Z" fill="white" stroke="#0C2E79" stroke-miterlimit="10"/>
</g>
<defs>
<clipPath id="clip0_467_658">
<rect x="3" y="2" width="12.5" height="15.9091" rx="0.568182" fill="white"/>
</clipPath>
<clipPath id="clip1_467_658">
<rect width="9" height="8" fill="white" transform="translate(11 8.90918)"/>
</clipPath>
</defs>
</svg>
