<svg width="32" height="32" viewBox="0 0 32 32" fill="none" xmlns="http://www.w3.org/2000/svg">
<g clip-path="url(#clip0_255_2516)">
<path d="M22.375 11.875L23.5 13" stroke="white" stroke-width="2" stroke-linecap="round" stroke-linejoin="round"/>
<path d="M19 10.375C19 11.4105 19.8395 12.25 20.875 12.25C21.3937 12.25 21.8631 12.0394 22.2026 11.6991C22.5408 11.3599 22.75 10.8919 22.75 10.375C22.75 9.33947 21.9105 8.5 20.875 8.5C19.8395 8.5 19 9.33947 19 10.375Z" stroke="white" stroke-width="2" stroke-linecap="round" stroke-linejoin="round"/>
<path d="M16.75 8.53704C16.5033 8.51254 16.2531 8.5 16 8.5C11.8579 8.5 8.5 11.8579 8.5 16C8.5 17.3661 8.86523 18.6468 9.50337 19.75L8.875 23.125L12.25 22.4967C13.3532 23.1348 14.6339 23.5 16 23.5C20.1421 23.5 23.5 20.1421 23.5 16C23.5 15.7469 23.4875 15.4967 23.4629 15.25" stroke="white" stroke-width="2" stroke-linecap="round" stroke-linejoin="round"/>
</g>
<defs>
<clipPath id="clip0_255_2516">
<rect width="18" height="18" fill="white" transform="translate(7 7)"/>
</clipPath>
</defs>
</svg>
