<svg width="24" height="24" viewBox="0 0 24 24" fill="none" xmlns="http://www.w3.org/2000/svg">
<g clip-path="url(#clip0_432_1453)">
<g clip-path="url(#clip1_432_1453)">
<path d="M20.5626 5.73792V3.98848C20.5626 3.63167 20.2733 3.34241 19.9165 3.34241H9.55966C9.40074 3.34241 9.24741 3.40097 9.12896 3.50691L5.77837 6.5035C5.64132 6.62607 5.56299 6.80122 5.56299 6.98508V20.4231C5.56299 20.78 5.85225 21.0692 6.20907 21.0692H19.9165C20.2733 21.0692 20.5626 20.78 20.5626 20.4231V5.73792Z" fill="#3171C4"/>
<path d="M10.3125 5.00171V7.69659" stroke="white" stroke-width="1.29216" stroke-miterlimit="10"/>
<path d="M10.996 8.09045H7.44653" stroke="white" stroke-width="1.29216" stroke-miterlimit="10"/>
</g>
<g clip-path="url(#clip2_432_1453)">
<path d="M10.2877 11.0034L3.06562 16.8532L2.1709 19.5311L4.84248 18.6364L12.0126 12.9159L10.2877 11.0034Z" fill="#3171C4" stroke="white" stroke-width="1.1371" stroke-miterlimit="10"/>
</g>
</g>
<defs>
<clipPath id="clip0_432_1453">
<rect x="2" y="2" width="20" height="20" rx="4" fill="white"/>
</clipPath>
<clipPath id="clip1_432_1453">
<rect x="5.56299" y="2" width="14.9996" height="19.0904" rx="0.646078" fill="white"/>
</clipPath>
<clipPath id="clip2_432_1453">
<rect width="10.7997" height="9.59975" fill="white" transform="translate(1.96289 10.2909)"/>
</clipPath>
</defs>
</svg>
