<svg width="42" height="43" viewBox="0 0 42 43" fill="none" xmlns="http://www.w3.org/2000/svg">
<path d="M26.8636 33.6271C26.6818 33.4453 26.4545 33.3453 26.1727 33.3271C25.9091 33.309 25.6727 33.3908 25.4636 33.5635C23.9909 34.8181 22.2909 35.4362 20.3727 35.4362C19.5091 35.4362 18.6909 35.309 17.9273 35.0635C17.3909 34.909 16.8636 34.7181 16.7273 34.6635C16.4909 34.5726 16.2455 34.5271 16 34.5271C15.7364 34.5271 15.4727 34.5817 15.2273 34.6817L12.7545 35.5726L13.4727 32.9908C13.5455 32.709 13.4909 32.4453 13.4364 32.2817C13.3818 32.0999 13.3 31.9453 13.2273 31.8271V31.8181C13.1818 31.7453 13.1364 31.6817 13.0909 31.609C12.2455 30.318 11.7909 28.7999 11.7909 27.2544C11.7727 22.7999 15.4727 19.1544 20.0818 19.1544C20.6273 19.1544 21.1636 19.209 21.6818 19.309C23.0727 19.5362 24.3364 20.118 25.4636 21.0817C25.6727 21.2544 25.9091 21.3271 26.1727 21.318C26.4545 21.2999 26.6818 21.209 26.8636 21.018L30.6818 17.2908C30.8909 17.0908 31 16.8544 31.0182 16.5635C31.0182 16.2635 30.9273 15.9999 30.7455 15.7726C27.7818 13.018 24.3182 11.6362 20.3636 11.6362C16.1182 11.6362 12.5 13.1726 9.50909 16.2362C6.5 19.2908 5 22.9817 5 27.3181C5 31.6544 6.5 35.3544 9.50909 38.4181C12.5 41.4726 16.1182 42.9999 20.3636 42.9999C24.3182 42.9999 27.7727 41.6181 30.7455 38.8635C30.9273 38.6362 31.0182 38.3726 31.0182 38.0726C31 37.7908 30.8909 37.5453 30.6818 37.3453L26.8636 33.6181V33.6271Z" fill="url(#paint0_linear_274_616)"/>
<path d="M33.334 0.5C33.5517 0.500115 33.7447 0.641072 33.8105 0.848633L34.0117 1.48242C34.289 2.3568 34.3919 2.65033 34.5693 2.85742C34.737 3.05304 34.9636 3.16352 35.7158 3.48828L36.2588 3.72266C36.4419 3.80172 36.5605 3.98218 36.5605 4.18164C36.5605 4.38118 36.442 4.56154 36.2588 4.64062L35.7158 4.875C34.9635 5.19979 34.737 5.31025 34.5693 5.50586C34.3918 5.71294 34.2891 6.00647 34.0117 6.88086L33.8105 7.51465C33.7447 7.72228 33.5518 7.86317 33.334 7.86328C33.1161 7.86328 32.9233 7.72236 32.8574 7.51465L32.6562 6.88086C32.3789 6.00635 32.2752 5.71295 32.0977 5.50586C31.93 5.31038 31.7033 5.19968 30.9512 4.875L30.4082 4.64062C30.2251 4.56151 30.1064 4.38112 30.1064 4.18164C30.1065 3.98218 30.2251 3.80172 30.4082 3.72266L30.9512 3.48828C31.7035 3.16348 31.93 3.05303 32.0977 2.85742C32.2752 2.65031 32.3788 2.35711 32.6562 1.48242L32.8574 0.848633L32.8877 0.774414C32.9717 0.608188 33.1433 0.5 33.334 0.5Z" fill="url(#paint1_linear_274_616)" stroke="#262424" stroke-linejoin="round"/>
<path d="M29.6973 5.45459C30.1157 5.45459 30.4905 5.71547 30.6357 6.10791L31.1045 7.37451C31.7512 9.12211 31.9872 9.69861 32.4023 10.1138C32.8175 10.5288 33.3934 10.7651 35.1406 11.4116L36.4082 11.8804C36.8005 12.0255 37.0614 12.3996 37.0615 12.8179C37.0615 13.2363 36.8006 13.6111 36.4082 13.7563L35.1406 14.2251C33.3933 14.8717 32.8175 15.1078 32.4023 15.5229C31.9872 15.9381 31.7511 16.5139 31.1045 18.2612L30.6357 19.5288C30.4905 19.9212 30.1157 20.1821 29.6973 20.1821C29.279 20.182 28.9049 19.9211 28.7598 19.5288L28.291 18.2612C27.6445 16.514 27.4082 15.9381 26.9932 15.5229C26.578 15.1078 26.0015 14.8718 24.2539 14.2251L22.9873 13.7563C22.5949 13.6111 22.334 13.2363 22.334 12.8179C22.3341 12.3996 22.595 12.0255 22.9873 11.8804L24.2539 11.4116C26.0015 10.7649 26.578 10.5289 26.9932 10.1138C27.4083 9.69861 27.6443 9.12213 28.291 7.37451L28.7598 6.10791C28.9049 5.71558 29.279 5.45474 29.6973 5.45459Z" fill="url(#paint2_linear_274_616)" stroke="#262424" stroke-width="2" stroke-linejoin="round"/>
<defs>
<linearGradient id="paint0_linear_274_616" x1="18.0091" y1="11.6362" x2="18.0091" y2="42.9999" gradientUnits="userSpaceOnUse">
<stop stop-color="#33C9FF"/>
<stop offset="1" stop-color="#229AFD"/>
</linearGradient>
<linearGradient id="paint1_linear_274_616" x1="33.3337" y1="1" x2="33.3337" y2="7.36364" gradientUnits="userSpaceOnUse">
<stop stop-color="#33C9FF"/>
<stop offset="1" stop-color="#229AFD"/>
</linearGradient>
<linearGradient id="paint2_linear_274_616" x1="29.6976" y1="6.45459" x2="29.6976" y2="19.1819" gradientUnits="userSpaceOnUse">
<stop stop-color="#33C9FF"/>
<stop offset="1" stop-color="#229AFD"/>
</linearGradient>
</defs>
</svg>
