<svg width="281" height="73" viewBox="0 0 281 73" fill="none" xmlns="http://www.w3.org/2000/svg">
<path d="M76.795 69.0544C76.795 69.5179 76.6405 69.9112 76.3174 70.2343C75.9943 70.5574 75.601 70.7259 75.1515 70.7259H68.1141C67.6646 70.7259 67.2713 70.5574 66.9482 70.2343C66.6251 69.9112 66.4706 69.5039 66.4706 69.0544V51.0744C66.4425 49.6276 65.9228 48.3915 64.8833 47.3942C63.8579 46.3828 62.6077 45.8771 61.1749 45.8771C59.7422 45.8771 58.492 46.3828 57.4666 47.3942C56.4412 48.4055 55.9074 49.6276 55.8793 51.0744V69.0544C55.8793 69.5179 55.7248 69.9112 55.4017 70.2343C55.0786 70.5574 54.6853 70.7259 54.2358 70.7259H47.1703C46.7208 70.7259 46.3275 70.5574 46.0044 70.2343C45.7094 69.9112 45.5549 69.5039 45.5549 69.0544V30.4677C45.5268 29.6109 45.2318 28.8945 44.6559 28.2905C44.5295 28.1641 44.389 28.0376 44.2345 27.9253C43.8693 27.6584 43.6866 27.3212 43.6866 26.8998C43.6866 26.5487 43.799 26.2537 44.0378 26.0149C44.2907 25.748 44.5997 25.6216 44.9368 25.6216H54.2218C54.6713 25.6216 55.0646 25.7901 55.3877 26.1132C55.7107 26.4363 55.8652 26.8437 55.8652 27.2932V40.5674C58.2251 37.8283 61.3014 36.4517 65.0659 36.4517C68.2124 36.4517 70.9375 37.4771 73.2552 39.5139C75.601 41.5788 76.7669 44.051 76.7669 46.9166V69.0403L76.795 69.0544Z" fill="white"/>
<path d="M97.4721 36.5219C102.122 36.5219 106.083 38.1092 109.384 41.2978C112.755 44.5426 114.455 48.5459 114.455 53.3078V55.3165C114.455 55.7941 114.3 56.2015 113.977 56.5386C113.654 56.8617 113.261 57.0302 112.783 57.0302H90.6453C90.9824 58.6737 91.8112 60.0362 93.1035 61.1178C94.3958 62.2135 95.9269 62.8175 97.7109 62.9299V62.958H98.2868C99.1296 62.958 99.9303 62.8316 100.703 62.5928C102.445 62.1995 103.934 61.455 105.184 60.3593V60.3874C105.507 60.0643 105.9 59.9379 106.378 60.0222C106.785 60.1065 107.15 60.3312 107.473 60.6824L110.662 64.1379C110.999 64.5172 111.182 64.9667 111.182 65.4864C111.154 65.9921 110.971 66.4135 110.634 66.7647C107.108 69.8409 102.712 71.372 97.4721 71.372C93.0473 71.372 89.1423 69.6724 85.7991 66.273C82.3858 62.8035 80.6721 58.6877 80.6721 53.9259C80.6721 49.164 82.3436 45.0342 85.6727 41.6068C88.9878 38.2075 92.9209 36.5078 97.4861 36.5078L97.4721 36.5219ZM97.767 44.655C96.2219 44.655 94.8032 45.1045 93.5389 46.0035C92.2888 46.8744 91.3617 48.0403 90.7296 49.4871H104.762C104.144 48.0403 103.203 46.8744 101.953 46.0035C100.689 45.1045 99.2841 44.655 97.753 44.655H97.767Z" fill="white"/>
<path d="M168.324 48.8972C168.352 49.0096 168.352 49.1079 168.352 49.1922V69.0404C168.352 69.5039 168.197 69.8972 167.874 70.2203C167.551 70.5434 167.158 70.7119 166.708 70.7119H159.643C159.193 70.7119 158.8 70.5434 158.477 70.2203C158.154 69.8972 157.999 69.4899 157.999 69.0404V50.0491C157.999 48.7989 157.55 47.7173 156.651 46.8183C155.724 45.9474 154.614 45.4979 153.322 45.4979C152.029 45.4979 150.934 45.9333 150.035 46.8183C149.108 47.7173 148.644 48.7989 148.644 50.0491V69.0404C148.644 69.5039 148.49 69.8972 148.167 70.2203C147.843 70.5434 147.45 70.7119 147.001 70.7119H140.581C140.132 70.7119 139.752 70.5434 139.457 70.2203C139.134 69.8972 138.98 69.4899 138.98 69.0404V50.0491C138.98 48.7989 138.502 47.7173 137.561 46.8183C136.62 45.9474 135.468 45.4979 134.148 45.4979C132.827 45.4979 131.676 45.9333 130.734 46.8183C129.793 47.7173 129.316 48.7989 129.316 50.0491V69.0404C129.316 69.5039 129.161 69.8972 128.838 70.2203C128.515 70.5434 128.122 70.7119 127.672 70.7119H120.607C120.157 70.7119 119.764 70.5434 119.441 70.2203C119.146 69.8972 118.991 69.4899 118.991 69.0404V41.8598C118.991 41.0029 118.696 40.2725 118.092 39.6544C117.966 39.528 117.825 39.4156 117.671 39.3313V39.3032C117.306 39.0644 117.123 38.7273 117.123 38.2778C117.123 37.9267 117.235 37.6317 117.474 37.3929C117.727 37.1541 118.036 37.0277 118.373 37.0277H127.672C128.122 37.0277 128.515 37.1962 128.838 37.5193C129.161 37.8283 129.316 38.2216 129.316 38.6992V40.1461C131.338 37.73 133.951 36.522 137.154 36.522C139.05 36.522 140.792 36.9996 142.379 37.9407C143.952 38.8678 145.175 40.1039 146.06 41.6631C147.141 40.0899 148.49 38.8397 150.119 37.9407C151.791 36.9996 153.603 36.522 155.541 36.522C158.856 36.522 161.764 37.716 164.278 40.1039C166.821 42.534 168.169 45.4698 168.338 48.8972H168.324Z" fill="white"/>
<path d="M210.436 25.6216C210.914 25.6216 211.321 25.7901 211.658 26.1554C211.981 26.4784 212.136 26.8858 212.136 27.3774V34.6537C212.136 35.1313 211.967 35.5386 211.616 35.8758C211.293 36.2269 210.9 36.4095 210.422 36.4095H198.876C198.665 36.4095 198.468 36.4938 198.3 36.6764C198.131 36.8309 198.047 37.0276 198.047 37.2664V68.9982C198.047 69.4758 197.878 69.8831 197.527 70.2202C197.204 70.5714 196.811 70.754 196.333 70.754H187.877C187.399 70.754 186.992 70.5855 186.655 70.2202C186.332 69.8972 186.177 69.4898 186.177 68.9982V37.2524C186.177 37.0136 186.093 36.8169 185.924 36.6624C185.756 36.4938 185.559 36.3955 185.349 36.3955H173.83C173.353 36.3955 172.945 36.2269 172.608 35.8617C172.285 35.5386 172.13 35.1313 172.13 34.6396V31.1841C172.13 30.2008 171.793 29.358 171.105 28.6557C170.951 28.5012 170.81 28.3748 170.656 28.2624C170.22 27.9814 170.009 27.5881 170.009 27.0825C170.009 26.6891 170.15 26.352 170.431 26.057C170.712 25.7761 171.049 25.6356 171.428 25.6356H210.464L210.436 25.6216Z" fill="white"/>
<path d="M221.631 36.522C226.449 36.522 230.551 38.2216 233.95 41.621C237.35 45.0203 239.049 49.122 239.049 53.94C239.049 58.7581 237.35 62.8457 233.95 66.2591C230.551 69.6584 226.449 71.3581 221.631 71.3581C216.813 71.3581 212.74 69.6584 209.34 66.2591C205.941 62.8598 204.241 58.7581 204.241 53.94C204.241 49.122 205.941 45.0343 209.34 41.621C212.74 38.2076 216.841 36.522 221.631 36.522ZM221.631 62.3681C223.612 62.3681 225.298 61.5394 226.702 59.8959C228.107 58.2524 228.795 56.2578 228.795 53.94C228.795 51.6223 228.093 49.6277 226.702 47.9842C225.298 46.3407 223.612 45.5119 221.631 45.5119C219.651 45.5119 217.993 46.3407 216.603 47.9842C215.198 49.6277 214.51 51.6223 214.51 53.94C214.51 56.2578 215.212 58.2524 216.603 59.8959C218.007 61.5394 219.679 62.3681 221.631 62.3681Z" fill="white"/>
<path d="M272.243 45.2449C273.507 45.7787 274.645 46.4248 275.656 47.1833C278.704 49.5151 280.235 52.9425 280.235 57.4937C280.235 61.5532 278.746 64.9666 275.754 67.7338C272.299 70.9365 267.425 72.5379 261.174 72.5379C256.594 72.5379 252.675 71.6248 249.431 69.7987C246.158 67.9586 243.98 65.4021 242.885 62.1292V62.1011C242.716 61.6375 242.449 61.2302 242.084 60.8509C241.958 60.6964 241.803 60.57 241.635 60.4576C241.199 60.1486 240.988 59.7553 240.988 59.2777C240.988 58.8563 241.129 58.5191 241.41 58.2522C241.691 57.9713 242.028 57.8308 242.407 57.8308H253.125C253.743 57.8308 254.15 58.1399 254.347 58.7579C254.712 59.8817 255.471 60.7666 256.637 61.4268C257.887 62.1292 259.404 62.4803 261.188 62.4803C263.337 62.4803 265.051 62.0168 266.315 61.1037C267.579 60.2048 268.225 59.0108 268.225 57.5218C268.225 54.9372 265.781 53.5747 260.907 53.4342C255.232 53.2797 250.835 51.9733 247.717 49.5151C244.43 46.9024 242.786 43.4328 242.786 39.1064C242.786 35.1171 244.318 31.6897 247.394 28.8382C250.835 25.6355 255.443 24.0342 261.202 24.0342C266.273 24.0342 270.459 25.2141 273.76 27.588C277.117 29.976 279.041 33.2629 279.533 37.4348C279.533 37.786 279.407 38.0951 279.14 38.3619C278.859 38.6429 278.55 38.7833 278.199 38.7833H268.647C268.029 38.7833 267.607 38.4743 267.396 37.8563C266.68 35.5526 264.615 34.4007 261.202 34.4007C256.946 34.4007 254.811 35.974 254.811 39.1064C254.811 40.6235 255.443 41.691 256.721 42.3372C257.297 42.6041 257.845 42.8007 258.364 42.9272C259.137 43.1519 260.205 43.3064 261.553 43.4188C266.933 43.9526 270.501 44.5566 272.271 45.2589L272.243 45.2449Z" fill="white"/>
<path d="M34.4016 57.8591C34.1207 57.5782 33.7695 57.4237 33.3341 57.3956C32.9267 57.3675 32.5615 57.4939 32.2384 57.7608C29.9628 59.6993 27.3361 60.6545 24.3722 60.6545C23.0377 60.6545 21.7735 60.4578 20.5936 60.0785C19.7648 59.8397 18.9501 59.5448 18.7394 59.4605C18.3742 59.32 17.9949 59.2498 17.6157 59.2498C17.2083 59.2498 16.801 59.3341 16.4217 59.4886L12.601 60.8652L13.7107 56.8759C13.823 56.4404 13.7388 56.0331 13.6545 55.7802C13.5702 55.4993 13.4438 55.2605 13.3314 55.0779V55.0638C13.2612 54.9515 13.1909 54.8531 13.1207 54.7408C11.8143 52.7461 11.112 50.4003 11.112 48.0123C11.0839 41.1294 16.801 35.4966 23.9227 35.4966C24.7655 35.4966 25.5943 35.5809 26.3949 35.7354C28.5441 36.0866 30.4966 36.9856 32.2384 38.4745C32.5615 38.7414 32.9267 38.8538 33.3341 38.8397C33.7695 38.8117 34.1207 38.6712 34.4016 38.3762L40.3013 32.617C40.6244 32.308 40.7929 31.9428 40.821 31.4933C40.821 31.0297 40.6806 30.6224 40.3996 30.2712C35.8204 26.015 30.4685 23.8799 24.3581 23.8799C17.7983 23.8799 12.2076 26.2538 7.58624 30.9876C2.93674 35.7073 0.619019 41.4103 0.619019 48.1107C0.619019 54.811 2.93674 60.528 7.58624 65.2618C12.2076 69.9816 17.7983 72.3414 24.3581 72.3414C30.4685 72.3414 35.8063 70.2063 40.3996 65.9501C40.6806 65.5989 40.821 65.1916 40.821 64.728C40.7929 64.2926 40.6244 63.9133 40.3013 63.6043L34.4016 57.8451V57.8591Z" fill="url(#paint0_linear_255_2357)"/>
<path d="M40.7013 1.75586C41.1604 1.75586 41.5664 2.05356 41.7052 2.49121L42.0157 3.46973C42.4522 4.84584 42.5963 5.23097 42.8243 5.49707C43.0317 5.73894 43.3092 5.88489 44.4943 6.39648L45.3331 6.75879C45.719 6.92539 45.9687 7.30534 45.9689 7.72559C45.9689 8.14601 45.7191 8.52673 45.3331 8.69336L44.4943 9.05566C43.3091 9.5673 43.0317 9.71317 42.8243 9.95508C42.5963 10.2212 42.4521 10.6055 42.0157 11.9814L41.7052 12.9609C41.5663 13.3985 41.1604 13.6963 40.7013 13.6963C40.2423 13.6962 39.8362 13.3985 39.6974 12.9609L39.3868 11.9814C38.9506 10.6062 38.8071 10.2212 38.5792 9.95508C38.3719 9.71319 38.0942 9.56722 36.9093 9.05566L36.0695 8.69336C35.6836 8.52666 35.4337 8.14591 35.4337 7.72559C35.4339 7.30545 35.6838 6.92546 36.0695 6.75879L36.9093 6.39648C38.0943 5.88489 38.3719 5.73897 38.5792 5.49707C38.8072 5.23098 38.9505 4.84548 39.3868 3.46973L39.6974 2.49121L39.7618 2.33398C39.9389 1.98395 40.2996 1.75593 40.7013 1.75586Z" fill="url(#paint1_linear_255_2357)" stroke="#2F7073" stroke-width="2.10702" stroke-linejoin="round"/>
<path d="M35.0834 9.8335C35.6711 9.83359 36.1968 10.1993 36.4008 10.7505L37.1254 12.7085C38.12 15.3964 38.4943 16.3224 39.1625 16.9907C39.8308 17.659 40.7567 18.0341 43.4447 19.0288L45.4037 19.7534C45.9547 19.9575 46.3207 20.4831 46.3207 21.0708C46.3206 21.6584 45.9548 22.1842 45.4037 22.3882L43.4447 23.1128C40.7568 24.1074 39.8307 24.4816 39.1625 25.1499C38.4942 25.8182 38.12 26.7443 37.1254 29.4321L36.4008 31.3911C36.1968 31.9422 35.671 32.308 35.0834 32.3081C34.4957 32.3081 33.9701 31.9422 33.766 31.3911L33.0414 29.4321C32.0467 26.7441 31.6716 25.8182 31.0033 25.1499C30.335 24.4818 29.4089 24.1074 26.7211 23.1128L24.7631 22.3882C24.2119 22.1842 23.8462 21.6585 23.8461 21.0708C23.8461 20.483 24.2118 19.9574 24.7631 19.7534L26.7211 19.0288C29.4093 18.034 30.335 17.659 31.0033 16.9907C31.6716 16.3224 32.0466 15.3968 33.0414 12.7085L33.766 10.7505L33.808 10.6489C34.036 10.1547 34.5324 9.8335 35.0834 9.8335Z" fill="url(#paint2_linear_255_2357)" stroke="#2F7073" stroke-width="2.80936" stroke-linejoin="round"/>
<defs>
<linearGradient id="paint0_linear_255_2357" x1="20.72" y1="23.8799" x2="20.72" y2="72.3414" gradientUnits="userSpaceOnUse">
<stop stop-color="#33C9FF"/>
<stop offset="1" stop-color="#229AFD"/>
</linearGradient>
<linearGradient id="paint1_linear_255_2357" x1="40.7015" y1="2.80957" x2="40.7015" y2="12.6423" gradientUnits="userSpaceOnUse">
<stop stop-color="#33C9FF"/>
<stop offset="1" stop-color="#229AFD"/>
</linearGradient>
<linearGradient id="paint2_linear_255_2357" x1="35.0831" y1="11.2378" x2="35.0831" y2="30.9033" gradientUnits="userSpaceOnUse">
<stop stop-color="#33C9FF"/>
<stop offset="1" stop-color="#229AFD"/>
</linearGradient>
</defs>
</svg>
