<svg width="66" height="126" viewBox="0 0 66 126" fill="none" xmlns="http://www.w3.org/2000/svg">
<g filter="url(#filter0_dii_483_445)">
<mask id="path-1-inside-1_483_445" fill="white">
<path d="M8 12C8 9.79086 9.79086 8 12 8H58V118H24C15.1634 118 8 110.837 8 102V12Z"/>
</mask>
<path d="M8 12C8 9.79086 9.79086 8 12 8H58V118H24C15.1634 118 8 110.837 8 102V12Z" fill="url(#paint0_linear_483_445)" fill-opacity="0.1"/>
<path d="M8 12C8 9.79086 9.79086 8 12 8H58V118H24C15.1634 118 8 110.837 8 102V12Z" fill="#EDF1FA"/>
<path d="M6.5 12C6.5 8.96243 8.96243 6.5 12 6.5H58V9.5H12C10.6193 9.5 9.5 10.6193 9.5 12H6.5ZM58 119.5H24C14.335 119.5 6.5 111.665 6.5 102H9.5C9.5 110.008 15.9919 116.5 24 116.5H58V119.5ZM24 119.5C14.335 119.5 6.5 111.665 6.5 102V12C6.5 8.96243 8.96243 6.5 12 6.5V9.5C10.6193 9.5 9.5 10.6193 9.5 12V102C9.5 110.008 15.9919 116.5 24 116.5V119.5ZM58 8V118V8Z" fill="white" fill-opacity="0.5" mask="url(#path-1-inside-1_483_445)"/>
</g>
<path d="M40.4717 59.16C40.3203 59.0086 40.1312 58.9254 39.8966 58.9102C39.6771 58.8951 39.4803 58.9632 39.3063 59.107C38.0803 60.1513 36.6652 60.6659 35.0685 60.6659C34.3495 60.6659 33.6685 60.56 33.0328 60.3556C32.5863 60.227 32.1474 60.0681 32.0339 60.0227C31.8371 59.947 31.6328 59.9091 31.4285 59.9091C31.209 59.9091 30.9895 59.9545 30.7852 60.0378L28.7268 60.7794L29.3247 58.6302C29.3852 58.3956 29.3398 58.1762 29.2944 58.0399C29.249 57.8886 29.1809 57.7599 29.1203 57.6616V57.654C29.0825 57.5935 29.0447 57.5405 29.0068 57.4799C28.303 56.4054 27.9247 55.1416 27.9247 53.8551C27.9095 50.147 30.9895 47.1124 34.8263 47.1124C35.2803 47.1124 35.7268 47.1578 36.1582 47.241C37.316 47.4302 38.3679 47.9145 39.3063 48.7167C39.4803 48.8605 39.6771 48.921 39.8966 48.9135C40.1312 48.8983 40.3203 48.8227 40.4717 48.6637L43.6501 45.561C43.8241 45.3945 43.9149 45.1978 43.9301 44.9556C43.9301 44.7059 43.8544 44.4864 43.703 44.2972C41.236 42.0043 38.3528 40.854 35.0609 40.854C31.5268 40.854 28.5149 42.1329 26.0252 44.6832C23.5203 47.2259 22.2717 50.2983 22.2717 53.9081C22.2717 57.5178 23.5203 60.5978 26.0252 63.1481C28.5149 65.6908 31.5268 66.9621 35.0609 66.9621C38.3528 66.9621 41.2285 65.8118 43.703 63.5189C43.8544 63.3297 43.9301 63.1102 43.9301 62.8605C43.9149 62.6259 43.8241 62.4216 43.6501 62.2551L40.4717 59.1524V59.16Z" fill="url(#paint1_linear_483_445)"/>
<path d="M45.8578 31.584C46.0391 31.5841 46.1995 31.7013 46.2543 31.874L46.4213 32.4014C46.6523 33.1295 46.7384 33.3745 46.8862 33.5469C47.0257 33.7095 47.2146 33.8012 47.8403 34.0713L48.2924 34.2666C48.4449 34.3324 48.5443 34.4824 48.5444 34.6484C48.5444 34.8145 48.4449 34.9654 48.2924 35.0312L47.8403 35.2256C47.2142 35.4959 47.0257 35.5882 46.8862 35.751C46.7384 35.9234 46.6522 36.1675 46.4213 36.8955L46.2543 37.4229C46.1995 37.5957 46.0391 37.7138 45.8578 37.7139C45.6765 37.7139 45.5152 37.5958 45.4604 37.4229L45.2934 36.8955C45.0625 36.1675 44.9763 35.9234 44.8286 35.751C44.689 35.5882 44.5005 35.4959 43.8745 35.2256L43.4223 35.0312C43.2698 34.9654 43.1713 34.8145 43.1713 34.6484C43.1714 34.4825 43.2699 34.3324 43.4223 34.2666L43.8745 34.0713C44.5002 33.8012 44.689 33.7094 44.8286 33.5469C44.9763 33.3745 45.0625 33.1295 45.2934 32.4014L45.4604 31.874L45.4858 31.8125C45.5556 31.6739 45.6989 31.584 45.8578 31.584Z" fill="url(#paint2_linear_483_445)" stroke="white" stroke-width="0.832432" stroke-linejoin="round"/>
<path d="M42.8304 35.7085C43.1787 35.7085 43.4907 35.9249 43.6116 36.2515L44.0023 37.3062C44.5406 38.7609 44.7367 39.2408 45.0823 39.5864C45.4279 39.932 45.9073 40.1283 47.3616 40.6665L48.4173 41.0571C48.7437 41.178 48.9601 41.4893 48.9603 41.8374C48.9603 42.1856 48.7438 42.4977 48.4173 42.6187L47.3616 43.0093C45.9072 43.5475 45.4279 43.7438 45.0823 44.0894C44.7368 44.4349 44.5404 44.9143 44.0023 46.3687L43.6116 47.4243C43.4907 47.7509 43.1786 47.9673 42.8304 47.9673C42.4823 47.9671 42.171 47.7507 42.0501 47.4243L41.6595 46.3687C41.1213 44.9143 40.9249 44.4349 40.5794 44.0894C40.2338 43.7438 39.7539 43.5476 38.2991 43.0093L37.2444 42.6187C36.9178 42.4977 36.7015 42.1857 36.7015 41.8374C36.7017 41.4893 36.918 41.178 37.2444 41.0571L38.2991 40.6665C39.7539 40.1282 40.2338 39.932 40.5794 39.5864C40.925 39.2408 41.1212 38.7609 41.6595 37.3062L42.0501 36.2515L42.1038 36.1343C42.2491 35.8741 42.5258 35.7086 42.8304 35.7085Z" fill="url(#paint3_linear_483_445)" stroke="white" stroke-width="1.66486" stroke-linejoin="round"/>
<g clip-path="url(#clip0_483_445)">
<path d="M34.2437 80.8394C34.2437 80.9203 34.2166 80.9889 34.1601 81.0452C34.1035 81.1015 34.0346 81.1309 33.9558 81.1309H32.7231C32.6444 81.1309 32.5755 81.1015 32.5189 81.0452C32.4623 80.9889 32.4353 80.9178 32.4353 80.8394V77.7042C32.4304 77.4519 32.3393 77.2364 32.1572 77.0625C31.9776 76.8861 31.7587 76.7979 31.5077 76.7979C31.2567 76.7979 31.0377 76.8861 30.8581 77.0625C30.6785 77.2388 30.585 77.4519 30.5801 77.7042V80.8394C30.5801 80.9203 30.553 80.9889 30.4964 81.0452C30.4399 81.1015 30.371 81.1309 30.2922 81.1309H29.0546C28.9759 81.1309 28.907 81.1015 28.8504 81.0452C28.7987 80.9889 28.7717 80.9178 28.7717 80.8394V74.1109C28.7667 73.9615 28.7151 73.8366 28.6142 73.7313C28.5921 73.7092 28.5674 73.6872 28.5404 73.6676C28.4764 73.621 28.4444 73.5622 28.4444 73.4888C28.4444 73.4275 28.4641 73.3761 28.5059 73.3345C28.5502 73.2879 28.6044 73.2659 28.6634 73.2659H30.2898C30.3685 73.2659 30.4374 73.2953 30.494 73.3516C30.5506 73.4079 30.5776 73.479 30.5776 73.5573V75.872C30.991 75.3944 31.5298 75.1544 32.1892 75.1544C32.7404 75.1544 33.2177 75.3332 33.6237 75.6883C34.0346 76.0484 34.2388 76.4795 34.2388 76.9792V80.837L34.2437 80.8394Z" fill="#344054"/>
<path d="M37.8654 75.1666C38.6798 75.1666 39.3737 75.4434 39.9519 75.9994C40.5424 76.5652 40.8401 77.2633 40.8401 78.0937V78.4439C40.8401 78.5272 40.813 78.5983 40.7565 78.657C40.6999 78.7134 40.631 78.7428 40.5473 78.7428H36.6696C36.7287 79.0294 36.8739 79.2669 37.1002 79.4555C37.3266 79.6466 37.5948 79.7519 37.9073 79.7715V79.7764H38.0081C38.1558 79.7764 38.296 79.7544 38.4313 79.7127C38.7364 79.6442 38.9972 79.5143 39.2162 79.3233V79.3282C39.2728 79.2718 39.3417 79.2498 39.4254 79.2645C39.4967 79.2792 39.5607 79.3184 39.6173 79.3796L40.1758 79.9822C40.2348 80.0483 40.2668 80.1267 40.2668 80.2173C40.2619 80.3055 40.2299 80.379 40.1709 80.4402C39.5533 80.9766 38.7832 81.2436 37.8654 81.2436C37.0904 81.2436 36.4064 80.9472 35.8208 80.3545C35.2229 79.7495 34.9227 79.0318 34.9227 78.2015C34.9227 77.3711 35.2155 76.651 35.7986 76.0533C36.3793 75.4606 37.0682 75.1642 37.8679 75.1642L37.8654 75.1666ZM37.9171 76.5848C37.6464 76.5848 37.3979 76.6632 37.1765 76.82C36.9575 76.9718 36.7951 77.1751 36.6844 77.4274H39.1424C39.0341 77.1751 38.8693 76.9718 38.6503 76.82C38.4289 76.6632 38.1828 76.5848 37.9146 76.5848H37.9171Z" fill="#344054"/>
<path d="M50.2758 77.3247C50.2808 77.3443 50.2808 77.3614 50.2808 77.3761V80.8371C50.2808 80.918 50.2537 80.9865 50.1971 81.0429C50.1405 81.0992 50.0716 81.1286 49.9929 81.1286H48.7553C48.6765 81.1286 48.6076 81.0992 48.5511 81.0429C48.4945 80.9865 48.4674 80.9155 48.4674 80.8371V77.5255C48.4674 77.3075 48.3887 77.1189 48.2312 76.9622C48.0688 76.8103 47.8744 76.7319 47.6481 76.7319C47.4217 76.7319 47.2298 76.8079 47.0723 76.9622C46.9099 77.1189 46.8287 77.3075 46.8287 77.5255V80.8371C46.8287 80.918 46.8017 80.9865 46.7451 81.0429C46.6885 81.0992 46.6196 81.1286 46.5409 81.1286H45.4164C45.3377 81.1286 45.2713 81.0992 45.2196 81.0429C45.163 80.9865 45.136 80.9155 45.136 80.8371V77.5255C45.136 77.3075 45.0523 77.1189 44.8874 76.9622C44.7226 76.8103 44.5208 76.7319 44.2896 76.7319C44.0583 76.7319 43.8565 76.8079 43.6917 76.9622C43.5268 77.1189 43.4432 77.3075 43.4432 77.5255V80.8371C43.4432 80.918 43.4161 80.9865 43.3595 81.0429C43.3029 81.0992 43.234 81.1286 43.1553 81.1286H41.9177C41.839 81.1286 41.7701 81.0992 41.7135 81.0429C41.6618 80.9865 41.6347 80.9155 41.6347 80.8371V76.0975C41.6347 75.9481 41.5831 75.8207 41.4773 75.713C41.4551 75.6909 41.4305 75.6713 41.4035 75.6566V75.6517C41.3395 75.6101 41.3075 75.5513 41.3075 75.4729C41.3075 75.4117 41.3272 75.3603 41.369 75.3186C41.4133 75.277 41.4674 75.2549 41.5265 75.2549H43.1553C43.234 75.2549 43.3029 75.2843 43.3595 75.3407C43.4161 75.3945 43.4432 75.4631 43.4432 75.5464V75.7987C43.7975 75.3774 44.2551 75.1667 44.8161 75.1667C45.1483 75.1667 45.4534 75.25 45.7314 75.4141C46.007 75.5758 46.221 75.7913 46.376 76.0632C46.5655 75.7889 46.8017 75.5709 47.0871 75.4141C47.3799 75.25 47.6973 75.1667 48.0368 75.1667C48.6175 75.1667 49.1268 75.3749 49.5672 75.7913C50.0126 76.2151 50.2488 76.727 50.2783 77.3247H50.2758Z" fill="#344054"/>
<path d="M26.8179 78.8873C26.7687 78.8383 26.7072 78.8113 26.6309 78.8064C26.5596 78.8015 26.4956 78.8236 26.439 78.8701C26.0404 79.2081 25.5803 79.3747 25.0612 79.3747C24.8274 79.3747 24.606 79.3404 24.3993 79.2743C24.2541 79.2326 24.1114 79.1812 24.0745 79.1665C24.0106 79.142 23.9441 79.1298 23.8777 79.1298C23.8063 79.1298 23.735 79.1445 23.6685 79.1714L22.9993 79.4114L23.1937 78.7158C23.2134 78.6399 23.1986 78.5689 23.1838 78.5248C23.1691 78.4758 23.1469 78.4341 23.1272 78.4023V78.3998C23.1149 78.3802 23.1026 78.3631 23.0903 78.3435C22.8615 77.9957 22.7385 77.5866 22.7385 77.1702C22.7336 75.97 23.735 74.9878 24.9824 74.9878C25.1301 74.9878 25.2752 75.0025 25.4155 75.0295C25.7919 75.0907 26.1339 75.2475 26.439 75.5071C26.4956 75.5536 26.5596 75.5732 26.6309 75.5708C26.7072 75.5659 26.7687 75.5414 26.8179 75.4899L27.8513 74.4857C27.9079 74.4318 27.9374 74.3681 27.9423 74.2897C27.9423 74.2089 27.9177 74.1379 27.8685 74.0766C27.0664 73.3345 26.129 72.9622 25.0587 72.9622C23.9097 72.9622 22.9304 73.3761 22.1209 74.2016C21.3065 75.0246 20.9005 76.019 20.9005 77.1874C20.9005 78.3558 21.3065 79.3527 22.1209 80.1781C22.9304 81.0011 23.9097 81.4126 25.0587 81.4126C26.129 81.4126 27.064 81.0403 27.8685 80.2981C27.9177 80.2369 27.9423 80.1659 27.9423 80.085C27.9374 80.0091 27.9079 79.943 27.8513 79.8891L26.8179 78.8848V78.8873Z" fill="#344054"/>
<path d="M33.0182 86.7812C33.1019 86.7812 33.1733 86.8106 33.2323 86.8743C33.2889 86.9307 33.316 87.0017 33.316 87.0874V88.3562C33.316 88.4395 33.2864 88.5105 33.2249 88.5693C33.1683 88.6306 33.0994 88.6624 33.0158 88.6624H30.9933C30.9564 88.6624 30.9219 88.6771 30.8924 88.7089C30.8629 88.7359 30.8481 88.7702 30.8481 88.8118V94.345C30.8481 94.4283 30.8186 94.4993 30.7571 94.5581C30.7005 94.6194 30.6316 94.6512 30.548 94.6512H29.0668C28.9831 94.6512 28.9118 94.6218 28.8527 94.5581C28.7961 94.5018 28.7691 94.4308 28.7691 94.345V88.8094C28.7691 88.7677 28.7543 88.7334 28.7248 88.7065C28.6952 88.6771 28.6608 88.6599 28.6239 88.6599H26.6063C26.5227 88.6599 26.4513 88.6306 26.3923 88.5669C26.3357 88.5105 26.3086 88.4395 26.3086 88.3538V87.7512C26.3086 87.5798 26.2496 87.4328 26.129 87.3103C26.1019 87.2834 26.0773 87.2613 26.0503 87.2417C25.974 87.1928 25.9371 87.1242 25.9371 87.036C25.9371 86.9674 25.9617 86.9086 26.0109 86.8572C26.0601 86.8082 26.1191 86.7837 26.1856 86.7837H33.0232L33.0182 86.7812Z" fill="#344054"/>
<path d="M34.9792 88.682C35.8231 88.682 36.5416 88.9784 37.137 89.5711C37.7324 90.1639 38.0302 90.8791 38.0302 91.7193C38.0302 92.5594 37.7324 93.2722 37.137 93.8674C36.5416 94.4602 35.8231 94.7565 34.9792 94.7565C34.1353 94.7565 33.4217 94.4602 32.8263 93.8674C32.2309 93.2746 31.9332 92.5594 31.9332 91.7193C31.9332 90.8791 32.2309 90.1663 32.8263 89.5711C33.4217 88.9759 34.1402 88.682 34.9792 88.682ZM34.9792 93.1889C35.3261 93.1889 35.6214 93.0444 35.8674 92.7578C36.1135 92.4712 36.234 92.1234 36.234 91.7193C36.234 91.3151 36.111 90.9673 35.8674 90.6807C35.6214 90.3941 35.3261 90.2496 34.9792 90.2496C34.6323 90.2496 34.3419 90.3941 34.0984 90.6807C33.8523 90.9673 33.7318 91.3151 33.7318 91.7193C33.7318 92.1234 33.8548 92.4712 34.0984 92.7578C34.3444 93.0444 34.6372 93.1889 34.9792 93.1889Z" fill="#344054"/>
<path d="M43.8442 90.203C44.0657 90.2961 44.265 90.4088 44.4421 90.541C44.976 90.9476 45.2442 91.5453 45.2442 92.3389C45.2442 93.0468 44.9834 93.642 44.4593 94.1245C43.8541 94.683 43.0003 94.9622 41.9054 94.9622C41.1033 94.9622 40.4168 94.803 39.8485 94.4846C39.2752 94.1637 38.8938 93.7179 38.7019 93.1472V93.1423C38.6724 93.0615 38.6256 92.9904 38.5616 92.9243C38.5395 92.8973 38.5124 92.8753 38.4829 92.8557C38.4066 92.8018 38.3697 92.7332 38.3697 92.65C38.3697 92.5765 38.3943 92.5177 38.4435 92.4712C38.4927 92.4222 38.5518 92.3977 38.6182 92.3977H40.4955C40.6038 92.3977 40.6752 92.4516 40.7096 92.5593C40.7736 92.7553 40.9064 92.9096 41.1107 93.0247C41.3296 93.1472 41.5954 93.2084 41.9078 93.2084C42.2843 93.2084 42.5845 93.1276 42.8059 92.9684C43.0274 92.8116 43.1405 92.6034 43.1405 92.3438C43.1405 91.8931 42.7124 91.6555 41.8586 91.631C40.8646 91.6041 40.0945 91.3763 39.5483 90.9476C38.9725 90.492 38.6847 89.887 38.6847 89.1326C38.6847 88.437 38.9528 87.8393 39.4917 87.3421C40.0945 86.7836 40.9015 86.5044 41.9103 86.5044C42.7985 86.5044 43.5317 86.7101 44.1099 87.1241C44.698 87.5405 45.0351 88.1137 45.1212 88.8411C45.1212 88.9024 45.099 88.9563 45.0523 89.0028C45.0031 89.0518 44.949 89.0763 44.8875 89.0763H43.2143C43.1061 89.0763 43.0323 89.0224 42.9954 88.9146C42.8699 88.5129 42.5082 88.3121 41.9103 88.3121C41.1648 88.3121 40.7908 88.5864 40.7908 89.1326C40.7908 89.3971 40.9015 89.5833 41.1254 89.696C41.2263 89.7425 41.3223 89.7768 41.4133 89.7988C41.5486 89.838 41.7356 89.865 41.9718 89.8846C42.9142 89.9777 43.5391 90.083 43.8491 90.2055L43.8442 90.203Z" fill="#344054"/>
</g>
<defs>
<filter id="filter0_dii_483_445" x="0" y="0" width="66" height="126" filterUnits="userSpaceOnUse" color-interpolation-filters="sRGB">
<feFlood flood-opacity="0" result="BackgroundImageFix"/>
<feColorMatrix in="SourceAlpha" type="matrix" values="0 0 0 0 0 0 0 0 0 0 0 0 0 0 0 0 0 0 127 0" result="hardAlpha"/>
<feMorphology radius="4" operator="dilate" in="SourceAlpha" result="effect1_dropShadow_483_445"/>
<feOffset/>
<feGaussianBlur stdDeviation="2"/>
<feComposite in2="hardAlpha" operator="out"/>
<feColorMatrix type="matrix" values="0 0 0 0 0.364183 0 0 0 0 0.550552 0 0 0 0 0.75 0 0 0 0.15 0"/>
<feBlend mode="normal" in2="BackgroundImageFix" result="effect1_dropShadow_483_445"/>
<feBlend mode="normal" in="SourceGraphic" in2="effect1_dropShadow_483_445" result="shape"/>
<feColorMatrix in="SourceAlpha" type="matrix" values="0 0 0 0 0 0 0 0 0 0 0 0 0 0 0 0 0 0 127 0" result="hardAlpha"/>
<feOffset dx="3" dy="3"/>
<feGaussianBlur stdDeviation="2"/>
<feComposite in2="hardAlpha" operator="arithmetic" k2="-1" k3="1"/>
<feColorMatrix type="matrix" values="0 0 0 0 1 0 0 0 0 1 0 0 0 0 1 0 0 0 0.25 0"/>
<feBlend mode="normal" in2="shape" result="effect2_innerShadow_483_445"/>
<feColorMatrix in="SourceAlpha" type="matrix" values="0 0 0 0 0 0 0 0 0 0 0 0 0 0 0 0 0 0 127 0" result="hardAlpha"/>
<feMorphology radius="2" operator="erode" in="SourceAlpha" result="effect3_innerShadow_483_445"/>
<feOffset dx="2" dy="2"/>
<feGaussianBlur stdDeviation="5"/>
<feComposite in2="hardAlpha" operator="arithmetic" k2="-1" k3="1"/>
<feColorMatrix type="matrix" values="0 0 0 0 0.557692 0 0 0 0 0.734615 0 0 0 0 1 0 0 0 0.25 0"/>
<feBlend mode="normal" in2="effect2_innerShadow_483_445" result="effect3_innerShadow_483_445"/>
</filter>
<linearGradient id="paint0_linear_483_445" x1="33" y1="8" x2="33" y2="118" gradientUnits="userSpaceOnUse">
<stop stop-color="white"/>
<stop offset="0.5" stop-color="#D3E7FF"/>
<stop offset="1" stop-color="#ADD1F9"/>
</linearGradient>
<linearGradient id="paint1_linear_483_445" x1="33.1009" y1="40.854" x2="33.1009" y2="66.9621" gradientUnits="userSpaceOnUse">
<stop stop-color="#33C9FF"/>
<stop offset="1" stop-color="#229AFD"/>
</linearGradient>
<linearGradient id="paint2_linear_483_445" x1="45.8576" y1="32" x2="45.8576" y2="37.2973" gradientUnits="userSpaceOnUse">
<stop stop-color="#33C9FF"/>
<stop offset="1" stop-color="#229AFD"/>
</linearGradient>
<linearGradient id="paint3_linear_483_445" x1="42.8308" y1="36.5405" x2="42.8308" y2="47.1351" gradientUnits="userSpaceOnUse">
<stop stop-color="#33C9FF"/>
<stop offset="1" stop-color="#229AFD"/>
</linearGradient>
<clipPath id="clip0_483_445">
<rect width="29.3802" height="22" fill="white" transform="translate(20.9005 72.9622)"/>
</clipPath>
</defs>
</svg>
