<svg width="58" height="126" viewBox="0 0 58 126" fill="none" xmlns="http://www.w3.org/2000/svg">
<g filter="url(#filter0_dii_427_973)">
<mask id="path-1-inside-1_427_973" fill="white">
<path d="M8 12C8 9.79086 9.79086 8 12 8H58V118H24C15.1634 118 8 110.837 8 102V12Z"/>
</mask>
<path d="M8 12C8 9.79086 9.79086 8 12 8H58V118H24C15.1634 118 8 110.837 8 102V12Z" fill="url(#paint0_linear_427_973)" fill-opacity="0.1"/>
<path d="M8 12C8 9.79086 9.79086 8 12 8H58V118H24C15.1634 118 8 110.837 8 102V12Z" fill="white"/>
<path d="M6.5 12C6.5 8.96243 8.96243 6.5 12 6.5H58V9.5H12C10.6193 9.5 9.5 10.6193 9.5 12H6.5ZM58 119.5H24C14.335 119.5 6.5 111.665 6.5 102H9.5C9.5 110.008 15.9919 116.5 24 116.5H58V119.5ZM24 119.5C14.335 119.5 6.5 111.665 6.5 102V12C6.5 8.96243 8.96243 6.5 12 6.5V9.5C10.6193 9.5 9.5 10.6193 9.5 12V102C9.5 110.008 15.9919 116.5 24 116.5V119.5ZM58 8V118V8Z" fill="white" fill-opacity="0.5" mask="url(#path-1-inside-1_427_973)"/>
</g>
<path d="M40.4717 59.16C40.3204 59.0086 40.1312 58.9254 39.8966 58.9102C39.6771 58.8951 39.4804 58.9632 39.3063 59.107C38.0804 60.1513 36.6652 60.6659 35.0685 60.6659C34.3496 60.6659 33.6685 60.56 33.0328 60.3556C32.5863 60.227 32.1474 60.0681 32.0339 60.0227C31.8371 59.947 31.6328 59.9091 31.4285 59.9091C31.209 59.9091 30.9896 59.9545 30.7852 60.0378L28.7269 60.7794L29.3247 58.6302C29.3852 58.3956 29.3398 58.1762 29.2944 58.0399C29.249 57.8886 29.1809 57.76 29.1204 57.6616V57.654C29.0825 57.5935 29.0447 57.5405 29.0069 57.4799C28.3031 56.4054 27.9247 55.1416 27.9247 53.8551C27.9096 50.147 30.9896 47.1124 34.8263 47.1124C35.2804 47.1124 35.7269 47.1578 36.1582 47.241C37.3161 47.4302 38.3679 47.9145 39.3063 48.7167C39.4804 48.8605 39.6771 48.921 39.8966 48.9135C40.1312 48.8983 40.3204 48.8227 40.4717 48.6637L43.6501 45.561C43.8242 45.3945 43.915 45.1978 43.9301 44.9556C43.9301 44.7059 43.8544 44.4864 43.7031 44.2972C41.236 42.0043 38.3528 40.854 35.0609 40.854C31.5269 40.854 28.515 42.1329 26.0252 44.6832C23.5204 47.2259 22.2717 50.2983 22.2717 53.9081C22.2717 57.5178 23.5204 60.5978 26.0252 63.1481C28.515 65.6908 31.5269 66.9621 35.0609 66.9621C38.3528 66.9621 41.2285 65.8118 43.7031 63.5189C43.8544 63.3297 43.9301 63.1102 43.9301 62.8605C43.915 62.6259 43.8242 62.4216 43.6501 62.2551L40.4717 59.1524V59.16Z" fill="url(#paint1_linear_427_973)"/>
<path d="M45.8579 31.584C46.0392 31.5841 46.1995 31.7013 46.2544 31.874L46.4214 32.4014C46.6523 33.1295 46.7385 33.3745 46.8862 33.5469C47.0258 33.7095 47.2146 33.8012 47.8403 34.0713L48.2925 34.2666C48.4449 34.3324 48.5444 34.4824 48.5444 34.6484C48.5444 34.8145 48.445 34.9654 48.2925 35.0312L47.8403 35.2256C47.2142 35.4959 47.0258 35.5882 46.8862 35.751C46.7385 35.9234 46.6523 36.1675 46.4214 36.8955L46.2544 37.4229C46.1996 37.5957 46.0392 37.7138 45.8579 37.7139C45.6765 37.7139 45.5153 37.5958 45.4604 37.4229L45.2935 36.8955C45.0626 36.1675 44.9764 35.9234 44.8286 35.751C44.689 35.5882 44.5006 35.4959 43.8745 35.2256L43.4224 35.0312C43.2699 34.9654 43.1714 34.8145 43.1714 34.6484C43.1715 34.4825 43.27 34.3324 43.4224 34.2666L43.8745 34.0713C44.5002 33.8012 44.6891 33.7094 44.8286 33.5469C44.9764 33.3745 45.0625 33.1295 45.2935 32.4014L45.4604 31.874L45.4858 31.8125C45.5557 31.6739 45.699 31.584 45.8579 31.584Z" fill="url(#paint2_linear_427_973)" stroke="white" stroke-width="0.832432" stroke-linejoin="round"/>
<path d="M42.8306 35.7085C43.1788 35.7085 43.4909 35.9249 43.6118 36.2515L44.0024 37.3062C44.5408 38.7609 44.7369 39.2408 45.0825 39.5864C45.4281 39.932 45.9075 40.1283 47.3618 40.6665L48.4175 41.0571C48.7439 41.178 48.9603 41.4893 48.9604 41.8374C48.9604 42.1856 48.744 42.4977 48.4175 42.6187L47.3618 43.0093C45.9074 43.5475 45.4281 43.7438 45.0825 44.0894C44.737 44.4349 44.5406 44.9143 44.0024 46.3687L43.6118 47.4243C43.4909 47.7509 43.1788 47.9673 42.8306 47.9673C42.4825 47.9671 42.1712 47.7507 42.0503 47.4243L41.6597 46.3687C41.1215 44.9143 40.9251 44.4349 40.5796 44.0894C40.234 43.7438 39.7541 43.5476 38.2993 43.0093L37.2446 42.6187C36.918 42.4977 36.7017 42.1857 36.7017 41.8374C36.7018 41.4893 36.9182 41.178 37.2446 41.0571L38.2993 40.6665C39.7541 40.1282 40.234 39.932 40.5796 39.5864C40.9252 39.2408 41.1213 38.7609 41.6597 37.3062L42.0503 36.2515L42.104 36.1343C42.2493 35.8741 42.526 35.7086 42.8306 35.7085Z" fill="url(#paint3_linear_427_973)" stroke="white" stroke-width="1.66486" stroke-linejoin="round"/>
<g clip-path="url(#clip0_427_973)">
<path d="M34.2439 80.8394C34.2439 80.9203 34.2168 80.9889 34.1602 81.0452C34.1036 81.1015 34.0347 81.1309 33.956 81.1309H32.7233C32.6446 81.1309 32.5757 81.1015 32.5191 81.0452C32.4625 80.9889 32.4354 80.9178 32.4354 80.8394V77.7042C32.4305 77.4519 32.3395 77.2364 32.1574 77.0625C31.9778 76.8861 31.7588 76.7979 31.5078 76.7979C31.2569 76.7979 31.0379 76.8861 30.8583 77.0625C30.6787 77.2388 30.5852 77.4519 30.5803 77.7042V80.8394C30.5803 80.9203 30.5532 80.9889 30.4966 81.0452C30.44 81.1015 30.3711 81.1309 30.2924 81.1309H29.0548C28.976 81.1309 28.9071 81.1015 28.8506 81.0452C28.7989 80.9889 28.7718 80.9178 28.7718 80.8394V74.1109C28.7669 73.9615 28.7152 73.8366 28.6144 73.7313C28.5922 73.7092 28.5676 73.6872 28.5405 73.6676C28.4766 73.621 28.4446 73.5622 28.4446 73.4888C28.4446 73.4275 28.4643 73.3761 28.5061 73.3345C28.5504 73.2879 28.6045 73.2659 28.6636 73.2659H30.2899C30.3687 73.2659 30.4375 73.2953 30.4941 73.3516C30.5507 73.4079 30.5778 73.479 30.5778 73.5573V75.872C30.9911 75.3944 31.53 75.1544 32.1894 75.1544C32.7405 75.1544 33.2179 75.3332 33.6238 75.6883C34.0347 76.0484 34.2389 76.4795 34.2389 76.9792V80.837L34.2439 80.8394Z" fill="#344054"/>
<path d="M37.8655 75.1666C38.68 75.1666 39.3738 75.4434 39.952 75.9994C40.5425 76.5652 40.8402 77.2633 40.8402 78.0937V78.4439C40.8402 78.5272 40.8132 78.5983 40.7566 78.657C40.7 78.7134 40.6311 78.7428 40.5474 78.7428H36.6698C36.7288 79.0294 36.874 79.2669 37.1003 79.4555C37.3267 79.6466 37.5949 79.7519 37.9074 79.7715V79.7764H38.0083C38.1559 79.7764 38.2961 79.7544 38.4315 79.7127C38.7365 79.6442 38.9974 79.5143 39.2163 79.3233V79.3282C39.2729 79.2718 39.3418 79.2498 39.4255 79.2645C39.4968 79.2792 39.5608 79.3184 39.6174 79.3796L40.1759 79.9822C40.235 80.0483 40.2669 80.1267 40.2669 80.2173C40.262 80.3055 40.23 80.379 40.171 80.4402C39.5534 80.9766 38.7833 81.2436 37.8655 81.2436C37.0905 81.2436 36.4065 80.9472 35.8209 80.3545C35.223 79.7495 34.9229 79.0318 34.9229 78.2015C34.9229 77.3711 35.2156 76.651 35.7988 76.0533C36.3794 75.4606 37.0684 75.1642 37.868 75.1642L37.8655 75.1666ZM37.9172 76.5848C37.6466 76.5848 37.3981 76.6632 37.1766 76.82C36.9576 76.9718 36.7953 77.1751 36.6845 77.4274H39.1425C39.0343 77.1751 38.8694 76.9718 38.6504 76.82C38.429 76.6632 38.1829 76.5848 37.9148 76.5848H37.9172Z" fill="#344054"/>
<path d="M50.276 77.3247C50.2809 77.3443 50.2809 77.3614 50.2809 77.3761V80.8371C50.2809 80.918 50.2538 80.9865 50.1972 81.0429C50.1406 81.0992 50.0717 81.1286 49.993 81.1286H48.7554C48.6767 81.1286 48.6078 81.0992 48.5512 81.0429C48.4946 80.9865 48.4675 80.9155 48.4675 80.8371V77.5255C48.4675 77.3075 48.3888 77.1189 48.2313 76.9622C48.0689 76.8103 47.8746 76.7319 47.6482 76.7319C47.4218 76.7319 47.2299 76.8079 47.0725 76.9622C46.9101 77.1189 46.8289 77.3075 46.8289 77.5255V80.8371C46.8289 80.918 46.8018 80.9865 46.7452 81.0429C46.6886 81.0992 46.6197 81.1286 46.541 81.1286H45.4166C45.3378 81.1286 45.2714 81.0992 45.2197 81.0429C45.1631 80.9865 45.1361 80.9155 45.1361 80.8371V77.5255C45.1361 77.3075 45.0524 77.1189 44.8876 76.9622C44.7227 76.8103 44.521 76.7319 44.2897 76.7319C44.0584 76.7319 43.8566 76.8079 43.6918 76.9622C43.5269 77.1189 43.4433 77.3075 43.4433 77.5255V80.8371C43.4433 80.918 43.4162 80.9865 43.3596 81.0429C43.303 81.0992 43.2341 81.1286 43.1554 81.1286H41.9178C41.8391 81.1286 41.7702 81.0992 41.7136 81.0429C41.6619 80.9865 41.6349 80.9155 41.6349 80.8371V76.0975C41.6349 75.9481 41.5832 75.8207 41.4774 75.713C41.4552 75.6909 41.4306 75.6713 41.4036 75.6566V75.6517C41.3396 75.6101 41.3076 75.5513 41.3076 75.4729C41.3076 75.4117 41.3273 75.3603 41.3691 75.3186C41.4134 75.277 41.4675 75.2549 41.5266 75.2549H43.1554C43.2341 75.2549 43.303 75.2843 43.3596 75.3407C43.4162 75.3945 43.4433 75.4631 43.4433 75.5464V75.7987C43.7976 75.3774 44.2552 75.1667 44.8162 75.1667C45.1484 75.1667 45.4535 75.25 45.7315 75.4141C46.0071 75.5758 46.2211 75.7913 46.3761 76.0632C46.5656 75.7889 46.8018 75.5709 47.0872 75.4141C47.38 75.25 47.6974 75.1667 48.0369 75.1667C48.6176 75.1667 49.1269 75.3749 49.5673 75.7913C50.0127 76.2151 50.2489 76.727 50.2784 77.3247H50.276Z" fill="#344054"/>
<path d="M26.818 78.8873C26.7688 78.8383 26.7073 78.8113 26.631 78.8064C26.5597 78.8015 26.4957 78.8236 26.4391 78.8701C26.0405 79.2081 25.5804 79.3747 25.0613 79.3747C24.8275 79.3747 24.6061 79.3404 24.3994 79.2743C24.2542 79.2326 24.1115 79.1812 24.0746 79.1665C24.0106 79.142 23.9442 79.1298 23.8778 79.1298C23.8064 79.1298 23.7351 79.1445 23.6686 79.1714L22.9994 79.4114L23.1938 78.7158C23.2135 78.6399 23.1987 78.5689 23.1839 78.5248C23.1692 78.4758 23.147 78.4341 23.1273 78.4023V78.3998C23.115 78.3802 23.1027 78.3631 23.0904 78.3435C22.8616 77.9957 22.7386 77.5866 22.7386 77.1702C22.7337 75.97 23.7351 74.9878 24.9825 74.9878C25.1301 74.9878 25.2753 75.0025 25.4156 75.0295C25.792 75.0907 26.134 75.2475 26.4391 75.5071C26.4957 75.5536 26.5597 75.5732 26.631 75.5708C26.7073 75.5659 26.7688 75.5414 26.818 75.4899L27.8514 74.4857C27.908 74.4318 27.9375 74.3681 27.9424 74.2897C27.9424 74.2089 27.9178 74.1379 27.8686 74.0766C27.0665 73.3345 26.1291 72.9622 25.0588 72.9622C23.9098 72.9622 22.9305 73.3761 22.121 74.2016C21.3066 75.0246 20.9006 76.019 20.9006 77.1874C20.9006 78.3558 21.3066 79.3527 22.121 80.1781C22.9305 81.0011 23.9098 81.4126 25.0588 81.4126C26.1291 81.4126 27.0641 81.0403 27.8686 80.2981C27.9178 80.2369 27.9424 80.1659 27.9424 80.085C27.9375 80.0091 27.908 79.943 27.8514 79.8891L26.818 78.8848V78.8873Z" fill="#344054"/>
<path d="M33.0184 86.7812C33.1021 86.7812 33.1734 86.8106 33.2325 86.8743C33.2891 86.9307 33.3161 87.0017 33.3161 87.0874V88.3562C33.3161 88.4395 33.2866 88.5105 33.2251 88.5693C33.1685 88.6306 33.0996 88.6624 33.016 88.6624H30.9935C30.9566 88.6624 30.9221 88.6771 30.8926 88.7089C30.8631 88.7359 30.8483 88.7702 30.8483 88.8118V94.345C30.8483 94.4283 30.8188 94.4993 30.7573 94.5581C30.7007 94.6194 30.6318 94.6512 30.5481 94.6512H29.0669C28.9833 94.6512 28.9119 94.6218 28.8529 94.5581C28.7963 94.5018 28.7692 94.4308 28.7692 94.345V88.8094C28.7692 88.7677 28.7545 88.7334 28.7249 88.7065C28.6954 88.6771 28.661 88.6599 28.6241 88.6599H26.6065C26.5228 88.6599 26.4515 88.6306 26.3924 88.5669C26.3359 88.5105 26.3088 88.4395 26.3088 88.3538V87.7512C26.3088 87.5798 26.2497 87.4328 26.1292 87.3103C26.1021 87.2834 26.0775 87.2613 26.0504 87.2417C25.9742 87.1928 25.9373 87.1242 25.9373 87.036C25.9373 86.9674 25.9619 86.9086 26.0111 86.8572C26.0603 86.8082 26.1193 86.7837 26.1858 86.7837H33.0233L33.0184 86.7812Z" fill="#344054"/>
<path d="M34.9794 88.682C35.8233 88.682 36.5418 88.9784 37.1372 89.5711C37.7326 90.1639 38.0303 90.8791 38.0303 91.7193C38.0303 92.5594 37.7326 93.2722 37.1372 93.8674C36.5418 94.4602 35.8233 94.7565 34.9794 94.7565C34.1354 94.7565 33.4219 94.4602 32.8265 93.8674C32.2311 93.2746 31.9333 92.5594 31.9333 91.7193C31.9333 90.8791 32.2311 90.1663 32.8265 89.5711C33.4219 88.9759 34.1404 88.682 34.9794 88.682ZM34.9794 93.1889C35.3263 93.1889 35.6216 93.0444 35.8676 92.7578C36.1137 92.4712 36.2342 92.1234 36.2342 91.7193C36.2342 91.3151 36.1112 90.9673 35.8676 90.6807C35.6216 90.3941 35.3263 90.2496 34.9794 90.2496C34.6325 90.2496 34.3421 90.3941 34.0985 90.6807C33.8525 90.9673 33.7319 91.3151 33.7319 91.7193C33.7319 92.1234 33.855 92.4712 34.0985 92.7578C34.3446 93.0444 34.6374 93.1889 34.9794 93.1889Z" fill="#344054"/>
<path d="M43.8444 90.203C44.0658 90.2961 44.2651 90.4088 44.4423 90.541C44.9762 90.9476 45.2444 91.5453 45.2444 92.3389C45.2444 93.0468 44.9836 93.642 44.4595 94.1245C43.8542 94.683 43.0004 94.9622 41.9055 94.9622C41.1034 94.9622 40.417 94.803 39.8486 94.4846C39.2753 94.1637 38.894 93.7179 38.702 93.1472V93.1423C38.6725 93.0615 38.6258 92.9904 38.5618 92.9243C38.5396 92.8973 38.5126 92.8753 38.4831 92.8557C38.4068 92.8018 38.3699 92.7332 38.3699 92.65C38.3699 92.5765 38.3945 92.5177 38.4437 92.4712C38.4929 92.4222 38.5519 92.3977 38.6184 92.3977H40.4957C40.604 92.3977 40.6753 92.4516 40.7098 92.5593C40.7737 92.7553 40.9066 92.9096 41.1108 93.0247C41.3298 93.1472 41.5955 93.2084 41.908 93.2084C42.2844 93.2084 42.5846 93.1276 42.8061 92.9684C43.0275 92.8116 43.1407 92.6034 43.1407 92.3438C43.1407 91.8931 42.7126 91.6555 41.8588 91.631C40.8648 91.6041 40.0947 91.3763 39.5484 90.9476C38.9727 90.492 38.6848 89.887 38.6848 89.1326C38.6848 88.437 38.953 87.8393 39.4918 87.3421C40.0946 86.7836 40.9017 86.5044 41.9105 86.5044C42.7987 86.5044 43.5319 86.7101 44.1101 87.1241C44.6981 87.5405 45.0352 88.1137 45.1213 88.8411C45.1213 88.9024 45.0992 88.9563 45.0525 89.0028C45.0032 89.0518 44.9491 89.0763 44.8876 89.0763H43.2145C43.1062 89.0763 43.0324 89.0224 42.9955 88.9146C42.87 88.5129 42.5083 88.3121 41.9105 88.3121C41.1649 88.3121 40.791 88.5864 40.791 89.1326C40.791 89.3971 40.9017 89.5833 41.1256 89.696C41.2265 89.7425 41.3224 89.7768 41.4135 89.7988C41.5488 89.838 41.7358 89.865 41.972 89.8846C42.9143 89.9777 43.5393 90.083 43.8493 90.2055L43.8444 90.203Z" fill="#344054"/>
</g>
<defs>
<filter id="filter0_dii_427_973" x="0" y="0" width="66" height="126" filterUnits="userSpaceOnUse" color-interpolation-filters="sRGB">
<feFlood flood-opacity="0" result="BackgroundImageFix"/>
<feColorMatrix in="SourceAlpha" type="matrix" values="0 0 0 0 0 0 0 0 0 0 0 0 0 0 0 0 0 0 127 0" result="hardAlpha"/>
<feMorphology radius="4" operator="dilate" in="SourceAlpha" result="effect1_dropShadow_427_973"/>
<feOffset/>
<feGaussianBlur stdDeviation="2"/>
<feComposite in2="hardAlpha" operator="out"/>
<feColorMatrix type="matrix" values="0 0 0 0 0.364183 0 0 0 0 0.550552 0 0 0 0 0.75 0 0 0 0.15 0"/>
<feBlend mode="normal" in2="BackgroundImageFix" result="effect1_dropShadow_427_973"/>
<feBlend mode="normal" in="SourceGraphic" in2="effect1_dropShadow_427_973" result="shape"/>
<feColorMatrix in="SourceAlpha" type="matrix" values="0 0 0 0 0 0 0 0 0 0 0 0 0 0 0 0 0 0 127 0" result="hardAlpha"/>
<feOffset dx="3" dy="3"/>
<feGaussianBlur stdDeviation="2"/>
<feComposite in2="hardAlpha" operator="arithmetic" k2="-1" k3="1"/>
<feColorMatrix type="matrix" values="0 0 0 0 1 0 0 0 0 1 0 0 0 0 1 0 0 0 0.25 0"/>
<feBlend mode="normal" in2="shape" result="effect2_innerShadow_427_973"/>
<feColorMatrix in="SourceAlpha" type="matrix" values="0 0 0 0 0 0 0 0 0 0 0 0 0 0 0 0 0 0 127 0" result="hardAlpha"/>
<feMorphology radius="2" operator="erode" in="SourceAlpha" result="effect3_innerShadow_427_973"/>
<feOffset dx="2" dy="2"/>
<feGaussianBlur stdDeviation="5"/>
<feComposite in2="hardAlpha" operator="arithmetic" k2="-1" k3="1"/>
<feColorMatrix type="matrix" values="0 0 0 0 0.557692 0 0 0 0 0.734615 0 0 0 0 1 0 0 0 0.25 0"/>
<feBlend mode="normal" in2="effect2_innerShadow_427_973" result="effect3_innerShadow_427_973"/>
</filter>
<linearGradient id="paint0_linear_427_973" x1="33" y1="8" x2="33" y2="118" gradientUnits="userSpaceOnUse">
<stop stop-color="white"/>
<stop offset="0.5" stop-color="#D3E7FF"/>
<stop offset="1" stop-color="#ADD1F9"/>
</linearGradient>
<linearGradient id="paint1_linear_427_973" x1="33.1009" y1="40.854" x2="33.1009" y2="66.9621" gradientUnits="userSpaceOnUse">
<stop stop-color="#33C9FF"/>
<stop offset="1" stop-color="#229AFD"/>
</linearGradient>
<linearGradient id="paint2_linear_427_973" x1="45.8577" y1="32" x2="45.8577" y2="37.2973" gradientUnits="userSpaceOnUse">
<stop stop-color="#33C9FF"/>
<stop offset="1" stop-color="#229AFD"/>
</linearGradient>
<linearGradient id="paint3_linear_427_973" x1="42.831" y1="36.5405" x2="42.831" y2="47.1351" gradientUnits="userSpaceOnUse">
<stop stop-color="#33C9FF"/>
<stop offset="1" stop-color="#229AFD"/>
</linearGradient>
<clipPath id="clip0_427_973">
<rect width="29.3802" height="22" fill="white" transform="translate(20.9006 72.9622)"/>
</clipPath>
</defs>
</svg>
