<svg width="40" height="40" viewBox="0 0 40 40" fill="none" xmlns="http://www.w3.org/2000/svg">
<path d="M23.9231 29.1651C28.2564 29.1651 31.7692 25.6479 31.7692 21.3093C31.7692 16.9707 28.2564 13.4536 23.9231 13.4536C19.5898 13.4536 16.0769 16.9707 16.0769 21.3093C16.0769 25.6479 19.5898 29.1651 23.9231 29.1651Z" stroke="#38AFA0" stroke-width="2" stroke-linecap="round" stroke-linejoin="round"/>
<path d="M6.48718 11.7079C7.93162 11.7079 9.10256 10.5355 9.10256 9.08928C9.10256 7.64308 7.93162 6.4707 6.48718 6.4707C5.04274 6.4707 3.8718 7.64308 3.8718 9.08928C3.8718 10.5355 5.04274 11.7079 6.48718 11.7079Z" stroke="#38AFA0" stroke-width="2" stroke-linecap="round" stroke-linejoin="round"/>
<path d="M22.1795 9.08921C23.6239 9.08921 24.7949 7.91683 24.7949 6.47063C24.7949 5.02443 23.6239 3.85205 22.1795 3.85205C20.735 3.85205 19.5641 5.02443 19.5641 6.47063C19.5641 7.91683 20.735 9.08921 22.1795 9.08921Z" stroke="#38AFA0" stroke-width="2" stroke-linecap="round" stroke-linejoin="round"/>
<path d="M5.61538 34.4022C7.05982 34.4022 8.23077 33.2298 8.23077 31.7836C8.23077 30.3374 7.05982 29.165 5.61538 29.165C4.17095 29.165 3 30.3374 3 31.7836C3 33.2298 4.17095 34.4022 5.61538 34.4022Z" stroke="#38AFA0" stroke-width="2" stroke-linecap="round" stroke-linejoin="round"/>
<path d="M34.3846 36.148C35.829 36.148 37 34.9757 37 33.5295C37 32.0833 35.829 30.9109 34.3846 30.9109C32.9402 30.9109 31.7692 32.0833 31.7692 33.5295C31.7692 34.9757 32.9402 36.148 34.3846 36.148Z" stroke="#38AFA0" stroke-width="2" stroke-linecap="round" stroke-linejoin="round"/>
<path d="M8.23077 10.835L16.9487 16.945" stroke="#38AFA0" stroke-width="2" stroke-miterlimit="10"/>
<path d="M7.35898 30.0378L16.9487 24.8007" stroke="#38AFA0" stroke-width="2" stroke-miterlimit="10"/>
<path d="M22.1795 9.08923L23.0513 13.4535" stroke="#38AFA0" stroke-width="2" stroke-miterlimit="10"/>
<path d="M32.641 31.7837L28.2821 27.4194" stroke="#38AFA0" stroke-width="2" stroke-miterlimit="10"/>
</svg>
