<svg width="40" height="40" viewBox="0 0 40 40" fill="none" xmlns="http://www.w3.org/2000/svg">
<path d="M13.64 38.24C11.5424 38.24 9.84003 36.5376 9.84003 34.44V21.52H17.44V34.44C17.44 36.5376 15.7376 38.24 13.64 38.24Z" stroke="#567DC2" stroke-width="2" stroke-linejoin="round"/>
<path d="M19.72 18.48H7.56V21.52H19.72V18.48Z" stroke="#567DC2" stroke-width="2" stroke-linejoin="round"/>
<path d="M15.92 14.6801C15.92 14.6801 22.2888 13.6313 22 8.6001C22 8.6001 16.2544 8.6457 15.92 14.6801Z" stroke="#567DC2" stroke-width="2" stroke-linejoin="round"/>
<path d="M10.6 12.4001C10.6 12.4001 5.47001 13.3045 3.76001 6.32006C3.76001 6.32006 9.88561 5.65126 10.6 12.4001Z" stroke="#567DC2" stroke-width="2" stroke-linejoin="round"/>
<path d="M13.64 17.7201C13.64 17.7201 13.8756 15.5313 15.92 14.6801" stroke="#567DC2" stroke-width="2" stroke-linejoin="round"/>
<path d="M10.6 12.4C10.6 12.4 12.5912 15.0144 12.88 18.48" stroke="#567DC2" stroke-width="2" stroke-linejoin="round"/>
<path d="M9.84003 24.5601H12.12" stroke="#567DC2" stroke-width="2" stroke-linejoin="round"/>
<path d="M9.84003 27.6001H12.12" stroke="#567DC2" stroke-width="2" stroke-linejoin="round"/>
<path d="M9.84003 30.6401H12.12" stroke="#567DC2" stroke-width="2" stroke-linejoin="round"/>
<path d="M32.64 38.24C30.5424 38.24 28.84 36.5376 28.84 34.44V10.88H36.44V34.44C36.44 36.5376 34.7376 38.24 32.64 38.24Z" stroke="#567DC2" stroke-width="2" stroke-linejoin="round"/>
<path d="M29.6 7.84005C30.4395 7.84005 31.12 7.15952 31.12 6.32005C31.12 5.48058 30.4395 4.80005 29.6 4.80005C28.7605 4.80005 28.08 5.48058 28.08 6.32005C28.08 7.15952 28.7605 7.84005 29.6 7.84005Z" stroke="#567DC2" stroke-width="2" stroke-linejoin="round"/>
<path d="M34.92 4.80001C35.7595 4.80001 36.44 4.11948 36.44 3.28001C36.44 2.44054 35.7595 1.76001 34.92 1.76001C34.0806 1.76001 33.4 2.44054 33.4 3.28001C33.4 4.11948 34.0806 4.80001 34.92 4.80001Z" stroke="#567DC2" stroke-width="2" stroke-linejoin="round"/>
<path d="M28.84 23.04C28.84 23.04 30.6944 21.5656 32.64 23.04C34.5856 24.5144 36.44 22.28 36.44 22.28" stroke="#567DC2" stroke-width="2" stroke-linejoin="round"/>
</svg>
