<svg width="24" height="24" viewBox="0 0 24 24" fill="none" xmlns="http://www.w3.org/2000/svg">
<g clip-path="url(#clip0_594_1130)">
<path d="M9.49219 2.89758L9.64453 4.03528L9.69043 4.38098L10.0312 4.45715C10.5856 4.58088 11.1005 4.80117 11.5615 5.10364L11.8604 5.29993L12.1426 5.08118L13.0273 4.39368L13.6953 5.07532L13.0107 5.99524L12.8066 6.26965L12.9893 6.56067C13.2863 7.03197 13.5039 7.56202 13.626 8.12903L13.6992 8.47083L14.0459 8.51868L15.1553 8.67395V9.64661L14.0459 9.80188L13.6992 9.85071L13.626 10.1925C13.504 10.7614 13.2866 11.2892 12.9893 11.7609L12.8066 12.0509L13.0107 12.3263L13.6953 13.2452L13.0273 13.9259L12.1426 13.2404L11.8604 13.0216L11.5615 13.2169C11.1007 13.5193 10.583 13.7405 10.0303 13.8644L9.69043 13.9406L9.64453 14.2853L9.49219 15.423H8.55957L8.40723 14.2853L8.36035 13.9406L8.02051 13.8644L7.81445 13.8136C7.33813 13.6843 6.89372 13.4816 6.49023 13.2169L6.19141 13.0216L5.90918 13.2404L5.02246 13.9259L4.35449 13.2452L5.04004 12.3263L5.24512 12.0509L5.0625 11.7609C4.76529 11.2895 4.54787 10.7587 4.42578 10.1915L4.35156 9.85071L4.00586 9.80188L2.89648 9.64661V8.67395L4.00586 8.51868L4.35254 8.47083L4.42578 8.12903C4.54776 7.56018 4.76517 7.03232 5.0625 6.56067L5.24512 6.26965L5.04004 5.99524L4.35449 5.07532L5.02246 4.39368L5.90918 5.08118L6.19141 5.29993L6.49023 5.10364C6.95089 4.80144 7.46798 4.57999 8.02051 4.45618L8.36035 4.38L8.40723 4.03528L8.55957 2.89758H9.49219ZM9.02734 6.6427C7.65036 6.6427 6.55078 7.77913 6.55078 9.1593C6.55081 10.5394 7.65038 11.6759 9.02734 11.6759C10.4041 11.6757 11.5039 10.5393 11.5039 9.1593C11.5039 7.77925 10.4042 6.64291 9.02734 6.6427Z" fill="#3171C4" stroke="#3171C4"/>
<path d="M22.7004 15.9086L22.1006 14.57L20.9132 14.9371C20.6133 14.5284 20.2463 14.1883 19.8385 13.9215L20.1096 12.6857L18.7566 12.1742L18.1713 13.2901C17.6915 13.2216 17.1973 13.2363 16.708 13.344L16.0435 12.2745L14.7313 12.8863L15.0911 14.0977C14.6905 14.4036 14.3571 14.7756 14.0956 15.1941L12.8842 14.9175L12.3828 16.2978L13.4767 16.8949C13.4095 17.3843 13.4239 17.8884 13.5295 18.3877L12.4812 19.0656L13.0809 20.4042L14.2683 20.0371C14.5682 20.4458 14.9328 20.786 15.343 21.0527L15.0719 22.2885L16.4249 22.8L17.0102 21.6841C17.49 21.7526 17.9842 21.7379 18.4735 21.6302L19.138 22.6997L20.4502 22.0879L20.0904 20.8765C20.491 20.5706 20.8244 20.1986 21.0859 19.7801L22.2973 20.0567L22.7987 18.6765L21.7048 18.0793C21.772 17.5899 21.7576 17.0858 21.6521 16.5865L22.7004 15.9086ZM18.2505 18.9505C17.4588 19.3201 16.5233 18.9652 16.161 18.1576C15.7988 17.3501 16.1466 16.3956 16.9383 16.0261C17.7299 15.6566 18.6655 16.0114 19.0277 16.819C19.3899 17.6266 19.0421 18.581 18.2505 18.9505Z" fill="#3171C4"/>
</g>
<defs>
<clipPath id="clip0_594_1130">
<rect width="20.4" height="20.4" fill="white" transform="translate(2.40039 2.40002)"/>
</clipPath>
</defs>
</svg>
