<svg width="24" height="24" viewBox="0 0 24 24" fill="none" xmlns="http://www.w3.org/2000/svg">
<path d="M19.8125 4.8805V2.78693C19.8125 2.47313 19.5581 2.21875 19.2443 2.21875H8.3213C8.17524 2.21875 8.03479 2.275 7.92911 2.37582L4.36349 5.77731C4.2511 5.88454 4.1875 6.0331 4.1875 6.18843V21.3475C4.1875 21.6613 4.44188 21.9157 4.75568 21.9157H19.2443C19.5581 21.9157 19.8125 21.6613 19.8125 21.3475V4.8805Z" fill="#3171C4"/>
<path d="M9.13477 4.0625V7.05689" stroke="white" stroke-width="1.13636" stroke-miterlimit="10"/>
<path d="M9.8469 7.49451H6.14941" stroke="white" stroke-width="1.13636" stroke-miterlimit="10"/>
<path d="M8.40625 16L10.3672 10.3438H11.875L13.8281 16H12.5703L12.1445 14.6953H10.0977L9.67188 16H8.40625ZM11.8477 13.7812L11.1406 11.6172H11.1016L10.3945 13.7812H11.8477ZM15.5206 16H14.3488V10.3438H15.5206V16Z" fill="white"/>
</svg>
