<svg width="64" height="64" viewBox="0 0 64 64" fill="none" xmlns="http://www.w3.org/2000/svg">
<g clip-path="url(#clip0_415_2007)">
<path d="M64 19.3821C64 19.3605 63.9993 19.3389 63.9986 19.3172C63.9986 19.3112 63.9986 19.3044 63.998 19.2983C63.9966 19.2754 63.9946 19.2524 63.9925 19.2294C63.9925 19.224 63.9918 19.2193 63.9912 19.2139C63.9884 19.1909 63.9857 19.168 63.9823 19.1457C63.9816 19.1403 63.981 19.1355 63.9803 19.1301C63.9769 19.1085 63.9728 19.0869 63.9687 19.0653C63.9674 19.0592 63.9667 19.0531 63.9653 19.0471C63.9613 19.0275 63.9565 19.0086 63.9517 18.989C63.9497 18.9809 63.9483 18.9728 63.9456 18.9647C63.9415 18.9491 63.9368 18.9329 63.932 18.9174C63.9286 18.9059 63.9259 18.8951 63.9225 18.8836C63.9184 18.8714 63.9143 18.86 63.9103 18.8478C63.9055 18.8329 63.9001 18.8181 63.8953 18.8039C63.8919 18.7951 63.8885 18.787 63.8851 18.7782C63.8783 18.7607 63.8715 18.7431 63.864 18.7255C63.8613 18.7195 63.8586 18.7127 63.8552 18.7066C63.8464 18.687 63.8375 18.6674 63.828 18.6485C63.8253 18.6431 63.8226 18.6384 63.8198 18.633C63.8097 18.6127 63.7995 18.5931 63.7886 18.5736C63.7859 18.5688 63.7825 18.5634 63.7797 18.5587C63.7689 18.5391 63.7573 18.5202 63.7457 18.5006C63.7423 18.4945 63.7383 18.4891 63.7342 18.483C63.7226 18.4655 63.7111 18.4479 63.6995 18.4304C63.6982 18.4283 63.6961 18.4256 63.6948 18.4229L51.3014 0.745229C51.3014 0.745229 51.3008 0.743878 51.3001 0.743203L51.2865 0.723614C51.2838 0.719562 51.2804 0.715509 51.2776 0.711456C51.2661 0.695245 51.2538 0.679033 51.2416 0.662822C51.2348 0.654041 51.228 0.645935 51.2212 0.637154C51.211 0.624996 51.2015 0.612838 51.1913 0.600679C51.1818 0.589196 51.1723 0.578389 51.1621 0.567581C51.1546 0.5588 51.1471 0.550694 51.139 0.541913C51.1267 0.528404 51.1138 0.51557 51.1016 0.502736C51.0961 0.497332 51.09 0.491253 51.0846 0.485849C51.0696 0.470989 51.0547 0.456804 51.0397 0.443295C51.0356 0.439917 51.0315 0.435865 51.0275 0.432487C51.0105 0.417627 50.9942 0.402767 50.9765 0.388582C50.9731 0.38588 50.9697 0.383178 50.9663 0.380476C50.9486 0.366291 50.9302 0.352107 50.9126 0.338597C50.9085 0.335895 50.9051 0.333193 50.901 0.330491C50.8833 0.317658 50.8657 0.304824 50.8473 0.292665C50.8419 0.289288 50.8364 0.285235 50.831 0.281858C50.8147 0.27105 50.7977 0.260243 50.7807 0.250111C50.7725 0.245382 50.7644 0.239979 50.7555 0.23525C50.7413 0.227145 50.727 0.218364 50.7127 0.210933C50.7011 0.204179 50.6889 0.1981 50.6773 0.19202C50.6658 0.185941 50.6549 0.180537 50.6434 0.174458C50.6277 0.167028 50.6121 0.159598 50.5964 0.152843C50.5883 0.149466 50.5801 0.145413 50.572 0.142036C50.5529 0.13393 50.5339 0.125824 50.5149 0.118394C50.5094 0.116368 50.504 0.114341 50.4986 0.11164C50.4775 0.103534 50.4564 0.0961038 50.4346 0.0886736C50.4306 0.0873227 50.4272 0.0859717 50.4231 0.0846208C50.4007 0.0771906 50.3782 0.070436 50.3558 0.0643567C50.3524 0.0630058 50.3483 0.0623303 50.3449 0.0609794C50.3225 0.0549002 50.3007 0.0494964 50.2783 0.0440927C50.2735 0.0427417 50.2688 0.0420663 50.264 0.0407153C50.2436 0.035987 50.2225 0.0319342 50.2015 0.0278814C50.194 0.0265305 50.1872 0.0251795 50.1797 0.0238286C50.1614 0.0204513 50.143 0.0177494 50.1246 0.0150475C50.1138 0.0136966 50.1029 0.0123456 50.092 0.0109947C50.0771 0.00896828 50.0614 0.00761735 50.0465 0.00626641C50.0315 0.00491547 50.0159 0.00356453 50.0009 0.00288906C49.9894 0.00221359 49.9785 0.00153813 49.9669 0.000862657C49.9472 0.000187188 49.9275 -0.000488281 49.9078 -0.000488281C49.9023 -0.000488281 49.8969 -0.000488281 49.8915 -0.000488281H16.9033C15.9645 -0.000488281 15.2037 0.755361 15.2037 1.68818V10.6895C8.97581 11.5176 4.15649 16.8308 4.15649 23.2417C4.15649 29.6526 8.97581 34.9658 15.2037 35.794V48.0085H1.69958C0.760731 48.0085 0 48.7643 0 49.6971V54.7591C0 59.8548 4.17281 64.0009 9.30145 64.0009H54.6986C59.694 64.0009 63.7818 60.0676 63.9912 55.1549C63.9973 55.0975 64 55.0387 64 54.98V19.3902C64 19.3902 64 19.3848 64 19.3821ZM51.591 7.06762L59.0454 17.7015H51.591V7.06762ZM7.55565 23.2417C7.55565 18.1203 11.7488 13.954 16.9033 13.954C22.0578 13.954 26.251 18.1203 26.251 23.2417C26.251 28.3631 22.0578 32.5294 16.9033 32.5294C11.7488 32.5294 7.55565 28.3631 7.55565 23.2417ZM3.39916 54.7584V51.3851H45.3971V54.7584C45.3971 56.9827 46.1925 59.026 47.5148 60.6228H9.30145C6.0471 60.6228 3.39916 57.9919 3.39916 54.7584ZM54.6986 60.6228C51.4442 60.6228 48.7963 57.9919 48.7963 54.7584V49.6965C48.7963 48.7636 48.0355 48.0078 47.0967 48.0078H18.6029V35.7933C24.8308 34.9652 29.6502 29.6519 29.6502 23.241C29.6502 16.8302 24.8308 11.5169 18.6029 10.6888V3.37753H48.1919V19.3902C48.1919 20.323 48.9526 21.0789 49.8915 21.0789H60.6008V54.7584C60.6008 57.9919 57.9529 60.6228 54.6986 60.6228Z" fill="white"/>
<path d="M23.2867 23.2414C23.2867 22.3086 22.5259 21.5527 21.5871 21.5527H12.2211C11.2822 21.5527 10.5215 22.3086 10.5215 23.2414C10.5215 24.1742 11.2822 24.9301 12.2211 24.9301H21.5871C22.5259 24.9301 23.2867 24.1742 23.2867 23.2414Z" fill="white"/>
</g>
<defs>
<clipPath id="clip0_415_2007">
<rect width="64" height="64" fill="white"/>
</clipPath>
</defs>
</svg>
