<svg width="32" height="32" viewBox="0 0 32 32" fill="none" xmlns="http://www.w3.org/2000/svg">
<path d="M16 24C20.4183 24 24 20.4183 24 16C24 11.5817 20.4183 8 16 8C11.5817 8 8 11.5817 8 16C8 20.4183 11.5817 24 16 24Z" stroke="white" stroke-width="1.5" stroke-linecap="round" stroke-linejoin="round"/>
<path d="M10.6667 21.1989C10.8867 20.4667 11.3369 19.8249 11.9504 19.3687C12.564 18.9125 13.3083 18.6663 14.0729 18.6665H17.6284C18.394 18.6662 19.1392 18.9131 19.7532 19.3703C20.3673 19.8275 20.8173 20.4708 21.0364 21.2043" stroke="white" stroke-width="1.5" stroke-linecap="round" stroke-linejoin="round"/>
<path d="M16 16.889C17.4728 16.889 18.6667 15.6951 18.6667 14.2223C18.6667 12.7496 17.4728 11.5557 16 11.5557C14.5272 11.5557 13.3333 12.7496 13.3333 14.2223C13.3333 15.6951 14.5272 16.889 16 16.889Z" stroke="white" stroke-width="1.5" stroke-linecap="round" stroke-linejoin="round"/>
</svg>
