<svg width="32" height="32" viewBox="0 0 32 32" fill="none" xmlns="http://www.w3.org/2000/svg">
<path d="M12.6948 9.02656C13.0267 7.65781 14.9733 7.65781 15.3052 9.02656L16.2185 12.7928C16.337 13.2815 16.7185 13.663 17.2072 13.7815L20.9734 14.6948C22.3422 15.0267 22.3422 16.9733 20.9734 17.3052L17.2072 18.2185C16.7185 18.337 16.337 18.7185 16.2185 19.2072L15.3052 22.9734C14.9733 24.3422 13.0267 24.3422 12.6948 22.9734L11.7815 19.2072C11.663 18.7185 11.2815 18.337 10.7928 18.2185L7.02656 17.3052C5.65781 16.9733 5.65781 15.0267 7.02656 14.6948L10.7928 13.7815C11.2815 13.663 11.663 13.2815 11.7815 12.7928L12.6948 9.02656Z" stroke="white" stroke-width="2"/>
<path d="M25.2218 7V11.4444M22.9996 9.22222H27.444M24.2223 20.5V24.9444M22 22.7222H26.4446" stroke="white" stroke-width="1.5" stroke-linecap="round" stroke-linejoin="round"/>
</svg>
