<svg width="16" height="16" viewBox="0 0 16 16" fill="none" xmlns="http://www.w3.org/2000/svg">
<g clip-path="url(#clip0_352_481)">
<path fill-rule="evenodd" clip-rule="evenodd" d="M10.862 1.52843C11.8588 0.531702 13.4748 0.531703 14.4715 1.52843C15.4682 2.52516 15.4682 4.14118 14.4715 5.13791L5.66731 13.9421C5.65613 13.9533 5.64506 13.9644 5.63407 13.9754C5.47081 14.1389 5.32679 14.2831 5.15568 14.396C5.00524 14.4952 4.84209 14.5736 4.67064 14.6291C4.47564 14.6922 4.27303 14.7146 4.04334 14.7399C4.02789 14.7416 4.01232 14.7433 3.99662 14.7451L1.74037 14.9958C1.53909 15.0181 1.33855 14.9478 1.19535 14.8046C1.05214 14.6614 0.981798 14.4608 1.00416 14.2595L1.25486 12.0033C1.2566 11.9876 1.25832 11.972 1.26003 11.9566C1.28536 11.7269 1.30771 11.5243 1.37084 11.3293C1.42634 11.1578 1.50475 10.9947 1.60396 10.8442C1.71679 10.6731 1.86104 10.5291 2.02457 10.3658C2.03557 10.3549 2.04666 10.3438 2.05783 10.3326L10.862 1.52843ZM13.5287 2.47124C13.0527 1.99521 12.2809 1.99521 11.8048 2.47124L3.00064 11.2754C2.78564 11.4904 2.74572 11.5348 2.71706 11.5783C2.68399 11.6284 2.65785 11.6828 2.63935 11.7399C2.62332 11.7895 2.61361 11.8483 2.58004 12.1505L2.42137 13.5786L3.84938 13.4199C4.15158 13.3863 4.21046 13.3766 4.25999 13.3606C4.31714 13.3421 4.37153 13.3159 4.42167 13.2829C4.46514 13.2542 4.5095 13.2143 4.7245 12.9993L13.5287 4.1951C14.0047 3.71907 14.0047 2.94727 13.5287 2.47124Z" fill="white"/>
<path fill-rule="evenodd" clip-rule="evenodd" d="M11.605 7.29749L8.85503 4.46415L9.8118 3.53552L12.5618 6.36885L11.605 7.29749Z" fill="white"/>
<path fill-rule="evenodd" clip-rule="evenodd" d="M3.00008 0.666504C3.36827 0.666504 3.66675 0.964981 3.66675 1.33317V2.33317H4.66675C5.03494 2.33317 5.33341 2.63165 5.33341 2.99984C5.33341 3.36803 5.03494 3.6665 4.66675 3.6665H3.66675V4.6665C3.66675 5.03469 3.36827 5.33317 3.00008 5.33317C2.63189 5.33317 2.33341 5.03469 2.33341 4.6665V3.6665H1.33341C0.965225 3.6665 0.666748 3.36803 0.666748 2.99984C0.666748 2.63165 0.965225 2.33317 1.33341 2.33317H2.33341V1.33317C2.33341 0.964981 2.63189 0.666504 3.00008 0.666504Z" fill="white"/>
<path fill-rule="evenodd" clip-rule="evenodd" d="M10.6667 12.9998C10.6667 12.6316 10.9652 12.3332 11.3334 12.3332H12.3334V11.3332C12.3334 10.965 12.6319 10.6665 13.0001 10.6665C13.3683 10.6665 13.6667 10.965 13.6667 11.3332V12.3332H14.6667C15.0349 12.3332 15.3334 12.6316 15.3334 12.9998C15.3334 13.368 15.0349 13.6665 14.6667 13.6665H13.6667V14.6665C13.6667 15.0347 13.3683 15.3332 13.0001 15.3332C12.6319 15.3332 12.3334 15.0347 12.3334 14.6665V13.6665H11.3334C10.9652 13.6665 10.6667 13.368 10.6667 12.9998Z" fill="white"/>
</g>
<defs>
<clipPath id="clip0_352_481">
<rect width="16" height="16" fill="white"/>
</clipPath>
</defs>
</svg>
