<svg width="18" height="20" viewBox="0 0 18 20" fill="none" xmlns="http://www.w3.org/2000/svg">
<g clip-path="url(#clip0_348_463)">
<path d="M14.569 18.5859L3.43149 18.5859C2.31268 18.5859 1.40649 17.6819 1.40649 16.5657L1.40649 3.43442C1.40649 2.31826 2.31268 1.41422 3.43149 1.41422L12.1241 1.41422C12.3772 1.41422 12.6202 1.51018 12.8076 1.6819L16.2649 4.6718C16.4725 4.86371 16.594 5.13139 16.594 5.41422L16.594 16.5657C16.594 17.6819 15.6878 18.5859 14.569 18.5859Z" fill="white" stroke="#303136" stroke-width="1.5" stroke-linejoin="round"/>
<path d="M12.0002 2V4.54545C12.0002 5.34909 12.7785 6 13.7394 6H17.0002" stroke="#303136" stroke-width="1.5" stroke-linejoin="round"/>
<path d="M3.9375 15.5557H12.0375" stroke="#303136" stroke-width="1.5" stroke-linejoin="round"/>
<path d="M3.9375 4.94971H7.9875" stroke="#303136" stroke-width="1.5" stroke-linejoin="round"/>
<path d="M3.9375 8.48486H10.0125" stroke="#303136" stroke-width="1.5" stroke-linejoin="round"/>
<path d="M3.9375 12.02H14.0625" stroke="#303136" stroke-width="1.5" stroke-linejoin="round"/>
<rect y="9" width="18" height="7" rx="1" fill="#303136"/>
<path d="M1.78223 10.7344H2.52637L3.62207 13.8662L4.71777 10.7344H5.46191L3.9209 15H3.32324L1.78223 10.7344ZM1.38086 10.7344H2.12207L2.25684 13.7871V15H1.38086V10.7344ZM5.12207 10.7344H5.86621V15H4.9873V13.7871L5.12207 10.7344ZM8.73742 13.8838C8.73742 13.8076 8.7257 13.7393 8.70227 13.6787C8.68078 13.6162 8.63977 13.5596 8.57922 13.5088C8.51867 13.4561 8.43371 13.4043 8.32434 13.3535C8.21496 13.3027 8.07336 13.25 7.89953 13.1953C7.70617 13.1328 7.52258 13.0625 7.34875 12.9844C7.17688 12.9062 7.02453 12.8154 6.89172 12.7119C6.76086 12.6064 6.65734 12.4844 6.58117 12.3457C6.50695 12.207 6.46984 12.0459 6.46984 11.8623C6.46984 11.6846 6.50891 11.5234 6.58703 11.3789C6.66516 11.2324 6.77453 11.1074 6.91516 11.0039C7.05578 10.8984 7.2218 10.8174 7.4132 10.7607C7.60656 10.7041 7.81848 10.6758 8.04895 10.6758C8.3634 10.6758 8.63781 10.7324 8.87219 10.8457C9.10656 10.959 9.2882 11.1143 9.41711 11.3115C9.54797 11.5088 9.6134 11.7344 9.6134 11.9883H8.74035C8.74035 11.8633 8.71398 11.7539 8.66125 11.6602C8.61047 11.5645 8.53234 11.4893 8.42688 11.4346C8.32336 11.3799 8.1925 11.3525 8.0343 11.3525C7.88195 11.3525 7.755 11.376 7.65344 11.4229C7.55188 11.4678 7.4757 11.5293 7.42492 11.6074C7.37414 11.6836 7.34875 11.7695 7.34875 11.8652C7.34875 11.9375 7.36633 12.0029 7.40148 12.0615C7.43859 12.1201 7.49328 12.1748 7.56555 12.2256C7.63781 12.2764 7.72668 12.3242 7.83215 12.3691C7.93762 12.4141 8.05969 12.458 8.19836 12.501C8.43078 12.5713 8.63488 12.6504 8.81066 12.7383C8.9884 12.8262 9.13684 12.9248 9.25598 13.0342C9.37512 13.1436 9.46496 13.2676 9.52551 13.4062C9.58605 13.5449 9.61633 13.7021 9.61633 13.8779C9.61633 14.0635 9.5802 14.2295 9.50793 14.376C9.43566 14.5225 9.33117 14.6465 9.19445 14.748C9.05773 14.8496 8.89465 14.9268 8.7052 14.9795C8.51574 15.0322 8.30383 15.0586 8.06945 15.0586C7.85852 15.0586 7.65051 15.0312 7.44543 14.9766C7.24035 14.9199 7.05383 14.835 6.88586 14.7217C6.71984 14.6084 6.58703 14.4639 6.48742 14.2881C6.38781 14.1123 6.33801 13.9043 6.33801 13.6641H7.21984C7.21984 13.7969 7.24035 13.9092 7.28137 14.001C7.32238 14.0928 7.38 14.167 7.45422 14.2236C7.53039 14.2803 7.62023 14.3213 7.72375 14.3467C7.82922 14.3721 7.94445 14.3848 8.06945 14.3848C8.2218 14.3848 8.3468 14.3633 8.44445 14.3203C8.54406 14.2773 8.6173 14.2178 8.66418 14.1416C8.71301 14.0654 8.73742 13.9795 8.73742 13.8838ZM11.4036 15H10.4748L10.4807 14.3145H11.4036C11.634 14.3145 11.8284 14.2627 11.9866 14.1592C12.1448 14.0537 12.2639 13.9004 12.344 13.6992C12.426 13.498 12.467 13.2549 12.467 12.9697V12.7617C12.467 12.543 12.4436 12.3506 12.3967 12.1846C12.3518 12.0186 12.2844 11.8789 12.1946 11.7656C12.1047 11.6523 11.9944 11.5674 11.8635 11.5107C11.7327 11.4521 11.5823 11.4229 11.4123 11.4229H10.4573V10.7344H11.4123C11.6975 10.7344 11.9582 10.7832 12.1946 10.8809C12.4329 10.9766 12.6389 11.1143 12.8127 11.2939C12.9866 11.4736 13.1204 11.6885 13.2141 11.9385C13.3098 12.1865 13.3577 12.4629 13.3577 12.7676V12.9697C13.3577 13.2725 13.3098 13.5488 13.2141 13.7988C13.1204 14.0488 12.9866 14.2637 12.8127 14.4434C12.6409 14.6211 12.4348 14.7588 12.1946 14.8564C11.9563 14.9521 11.6926 15 11.4036 15ZM10.9729 10.7344V15H10.094V10.7344H10.9729ZM16.097 13.8838C16.097 13.8076 16.0853 13.7393 16.0619 13.6787C16.0404 13.6162 15.9994 13.5596 15.9388 13.5088C15.8783 13.4561 15.7933 13.4043 15.6839 13.3535C15.5746 13.3027 15.433 13.25 15.2591 13.1953C15.0658 13.1328 14.8822 13.0625 14.7084 12.9844C14.5365 12.9062 14.3841 12.8154 14.2513 12.7119C14.1205 12.6064 14.017 12.4844 13.9408 12.3457C13.8666 12.207 13.8295 12.0459 13.8295 11.8623C13.8295 11.6846 13.8685 11.5234 13.9466 11.3789C14.0248 11.2324 14.1341 11.1074 14.2748 11.0039C14.4154 10.8984 14.5814 10.8174 14.7728 10.7607C14.9662 10.7041 15.1781 10.6758 15.4086 10.6758C15.723 10.6758 15.9974 10.7324 16.2318 10.8457C16.4662 10.959 16.6478 11.1143 16.7767 11.3115C16.9076 11.5088 16.973 11.7344 16.973 11.9883H16.1C16.1 11.8633 16.0736 11.7539 16.0209 11.6602C15.9701 11.5645 15.892 11.4893 15.7865 11.4346C15.683 11.3799 15.5521 11.3525 15.3939 11.3525C15.2416 11.3525 15.1146 11.376 15.013 11.4229C14.9115 11.4678 14.8353 11.5293 14.7845 11.6074C14.7338 11.6836 14.7084 11.7695 14.7084 11.8652C14.7084 11.9375 14.7259 12.0029 14.7611 12.0615C14.7982 12.1201 14.8529 12.1748 14.9252 12.2256C14.9974 12.2764 15.0863 12.3242 15.1918 12.3691C15.2972 12.4141 15.4193 12.458 15.558 12.501C15.7904 12.5713 15.9945 12.6504 16.1703 12.7383C16.348 12.8262 16.4964 12.9248 16.6156 13.0342C16.7347 13.1436 16.8246 13.2676 16.8851 13.4062C16.9457 13.5449 16.9759 13.7021 16.9759 13.8779C16.9759 14.0635 16.9398 14.2295 16.8675 14.376C16.7953 14.5225 16.6908 14.6465 16.5541 14.748C16.4173 14.8496 16.2543 14.9268 16.0648 14.9795C15.8754 15.0322 15.6634 15.0586 15.4291 15.0586C15.2181 15.0586 15.0101 15.0312 14.805 14.9766C14.6 14.9199 14.4134 14.835 14.2455 14.7217C14.0795 14.6084 13.9466 14.4639 13.847 14.2881C13.7474 14.1123 13.6976 13.9043 13.6976 13.6641H14.5795C14.5795 13.7969 14.6 13.9092 14.641 14.001C14.682 14.0928 14.7396 14.167 14.8138 14.2236C14.89 14.2803 14.9798 14.3213 15.0834 14.3467C15.1888 14.3721 15.3041 14.3848 15.4291 14.3848C15.5814 14.3848 15.7064 14.3633 15.8041 14.3203C15.9037 14.2773 15.9769 14.2178 16.0238 14.1416C16.0726 14.0654 16.097 13.9795 16.097 13.8838Z" fill="white"/>
</g>
<defs>
<clipPath id="clip0_348_463">
<rect width="18" height="20" fill="white"/>
</clipPath>
</defs>
</svg>
