<svg width="36" height="36" viewBox="0 0 36 36" fill="none" xmlns="http://www.w3.org/2000/svg">
<path d="M22.4717 27.9927C22.3203 27.8414 22.1312 27.7581 21.8966 27.743C21.6771 27.7278 21.4803 27.796 21.3063 27.9397C20.0803 28.9841 18.6652 29.4987 17.0685 29.4987C16.3495 29.4987 15.6685 29.3927 15.0328 29.1884C14.5863 29.0597 14.1474 28.9008 14.0339 28.8554C13.8371 28.7797 13.6328 28.7419 13.4285 28.7419C13.209 28.7419 12.9895 28.7873 12.7852 28.8706L10.7268 29.6122L11.3247 27.463C11.3852 27.2284 11.3398 27.0089 11.2944 26.8727C11.249 26.7214 11.1809 26.5927 11.1203 26.4943V26.4868C11.0825 26.4262 11.0447 26.3733 11.0068 26.3127C10.303 25.2381 9.92467 23.9743 9.92467 22.6878C9.90953 18.9797 12.9895 15.9451 16.8263 15.9451C17.2803 15.9451 17.7268 15.9906 18.1582 16.0738C19.316 16.263 20.3679 16.7473 21.3063 17.5495C21.4803 17.6933 21.6771 17.7538 21.8966 17.7462C22.1312 17.7311 22.3203 17.6554 22.4717 17.4965L25.6501 14.3938C25.8241 14.2273 25.9149 14.0306 25.9301 13.7884C25.9301 13.5387 25.8544 13.3192 25.703 13.13C23.236 10.837 20.3528 9.68677 17.0609 9.68677C13.5268 9.68677 10.5149 10.9657 8.02521 13.516C5.52035 16.0587 4.2717 19.1311 4.2717 22.7408C4.2717 26.3506 5.52035 29.4306 8.02521 31.9808C10.5149 34.5235 13.5268 35.7949 17.0609 35.7949C20.3528 35.7949 23.2285 34.6446 25.703 32.3516C25.8544 32.1624 25.9301 31.943 25.9301 31.6933C25.9149 31.4587 25.8241 31.2543 25.6501 31.0878L22.4717 27.9851V27.9927Z" fill="url(#paint0_linear_516_1405)"/>
<path d="M27.8578 0.416504C28.0391 0.416607 28.1995 0.533787 28.2543 0.706543L28.4213 1.23389C28.6523 1.962 28.7384 2.20699 28.8862 2.37939C29.0257 2.54206 29.2146 2.63368 29.8403 2.90381L30.2924 3.09912C30.4449 3.16493 30.5443 3.31494 30.5444 3.48096C30.5444 3.64706 30.4449 3.79794 30.2924 3.86377L29.8403 4.05811C29.2142 4.32841 29.0257 4.42067 28.8862 4.5835C28.7384 4.75589 28.6522 5.00005 28.4213 5.72803L28.2543 6.25537C28.1995 6.4282 28.0391 6.54628 27.8578 6.54639C27.6765 6.54639 27.5152 6.42828 27.4604 6.25537L27.2934 5.72803C27.0625 5.00005 26.9763 4.75589 26.8286 4.5835C26.689 4.42076 26.5005 4.3284 25.8745 4.05811L25.4223 3.86377C25.2698 3.79794 25.1713 3.64706 25.1713 3.48096C25.1714 3.31498 25.2699 3.16495 25.4223 3.09912L25.8745 2.90381C26.5002 2.63369 26.689 2.54194 26.8286 2.37939C26.9763 2.20699 27.0625 1.96201 27.2934 1.23389L27.4604 0.706543L27.4858 0.64502C27.5556 0.506394 27.6989 0.416504 27.8578 0.416504Z" fill="url(#paint1_linear_516_1405)" stroke="white" stroke-width="0.832432" stroke-linejoin="round"/>
<path d="M24.8304 4.54126C25.1787 4.54126 25.4907 4.75762 25.6116 5.08423L26.0023 6.13892C26.5406 7.59368 26.7367 8.07359 27.0823 8.41919C27.4279 8.76472 27.9073 8.9611 29.3616 9.49927L30.4173 9.88989C30.7437 10.0108 30.9601 10.3221 30.9603 10.6702C30.9603 11.0184 30.7438 11.3305 30.4173 11.4514L29.3616 11.842C27.9072 12.3802 27.4279 12.5766 27.0823 12.9221C26.7368 13.2677 26.5404 13.747 26.0023 15.2014L25.6116 16.2571C25.4907 16.5836 25.1786 16.8 24.8304 16.8C24.4823 16.7999 24.171 16.5835 24.0501 16.2571L23.6595 15.2014C23.1213 13.7471 22.9249 13.2677 22.5794 12.9221C22.2338 12.5765 21.7539 12.3804 20.2991 11.842L19.2444 11.4514C18.9178 11.3305 18.7015 11.0184 18.7015 10.6702C18.7017 10.3221 18.918 10.0108 19.2444 9.88989L20.2991 9.49927C21.7539 8.96095 22.2338 8.76479 22.5794 8.41919C22.925 8.0736 23.1212 7.59369 23.6595 6.13892L24.0501 5.08423L24.1038 4.96704C24.2491 4.70684 24.5258 4.54141 24.8304 4.54126Z" fill="url(#paint2_linear_516_1405)" stroke="white" stroke-width="1.66486" stroke-linejoin="round"/>
<defs>
<linearGradient id="paint0_linear_516_1405" x1="15.1009" y1="9.68677" x2="15.1009" y2="35.7949" gradientUnits="userSpaceOnUse">
<stop stop-color="#33C9FF"/>
<stop offset="1" stop-color="#229AFD"/>
</linearGradient>
<linearGradient id="paint1_linear_516_1405" x1="27.8576" y1="0.83252" x2="27.8576" y2="6.12982" gradientUnits="userSpaceOnUse">
<stop stop-color="#33C9FF"/>
<stop offset="1" stop-color="#229AFD"/>
</linearGradient>
<linearGradient id="paint2_linear_516_1405" x1="24.8308" y1="5.37329" x2="24.8308" y2="15.9679" gradientUnits="userSpaceOnUse">
<stop stop-color="#33C9FF"/>
<stop offset="1" stop-color="#229AFD"/>
</linearGradient>
</defs>
</svg>
