<svg width="64" height="64" viewBox="0 0 64 64" fill="none" xmlns="http://www.w3.org/2000/svg">
<path opacity="0.12" d="M32 31.9993L56 18.666V42.8222C56 43.7359 56 44.1927 55.8654 44.6002C55.7463 44.9607 55.5516 45.2916 55.2943 45.5707C55.0035 45.8863 54.6041 46.1082 53.8054 46.5519L34.0721 57.5149C33.3158 57.935 32.9377 58.1451 32.5372 58.2275C32.1828 58.3003 31.8172 58.3003 31.4628 58.2275C31.0623 58.1451 30.6842 57.935 29.9279 57.5149L10.1946 46.5519C9.39586 46.1082 8.99649 45.8863 8.70569 45.5707C8.44842 45.2916 8.25373 44.9607 8.13463 44.6002C8 44.1927 8 43.7359 8 42.8222V18.666L32 31.9993Z" fill="#404040"/>
<path d="M29.9279 6.48406C30.6842 6.06391 31.0623 5.85383 31.4628 5.77147C31.8172 5.69857 32.1828 5.69857 32.5372 5.77147C32.9377 5.85383 33.3158 6.06391 34.0721 6.48406L53.8054 17.447C54.6041 17.8908 55.0035 18.1126 55.2943 18.4282C55.5516 18.7074 55.7463 19.0383 55.8654 19.3987C56 19.8062 56 20.263 56 21.1768V42.8224C56 43.7361 56 44.193 55.8654 44.6004C55.7463 44.9609 55.5516 45.2918 55.2943 45.5709C55.0035 45.8865 54.6041 46.1084 53.8054 46.5521L34.0721 57.5151C33.3158 57.9352 32.9377 58.1453 32.5372 58.2277C32.1828 58.3006 31.8172 58.3006 31.4628 58.2277C31.0623 58.1453 30.6842 57.9352 29.9279 57.5151L10.1946 46.5521C9.39586 46.1084 8.99649 45.8865 8.70569 45.5709C8.44842 45.2918 8.25373 44.9609 8.13463 44.6004C8 44.193 8 43.7361 8 42.8224V21.1768C8 20.2631 8 19.8062 8.13463 19.3987C8.25373 19.0383 8.44842 18.7074 8.70569 18.4282C8.99649 18.1126 9.39586 17.8908 10.1946 17.447L29.9279 6.48406Z" fill="white"/>
<path d="M54.6666 19.4069L31.9999 31.9995M31.9999 31.9995L9.33325 19.4069M31.9999 31.9995L32 57.3329M20 11.9997L44 25.333M56 42.8224V21.1768C56 20.263 56 19.8062 55.8654 19.3987C55.7463 19.0383 55.5516 18.7074 55.2943 18.4282C55.0035 18.1126 54.6041 17.8908 53.8054 17.447L34.0721 6.48406C33.3158 6.06391 32.9377 5.85383 32.5372 5.77147C32.1828 5.69857 31.8172 5.69857 31.4628 5.77147C31.0623 5.85383 30.6842 6.06391 29.9279 6.48406L10.1946 17.447C9.39586 17.8908 8.99649 18.1126 8.70569 18.4282C8.44842 18.7074 8.25373 19.0383 8.13463 19.3987C8 19.8062 8 20.2631 8 21.1768V42.8224C8 43.7361 8 44.193 8.13463 44.6004C8.25373 44.9609 8.44842 45.2918 8.70569 45.5709C8.99649 45.8865 9.39586 46.1084 10.1946 46.5521L29.9279 57.5151C30.6842 57.9352 31.0623 58.1453 31.4628 58.2277C31.8172 58.3006 32.1828 58.3006 32.5372 58.2277C32.9377 58.1453 33.3158 57.9352 34.0721 57.5151L53.8054 46.5521C54.6041 46.1084 55.0035 45.8865 55.2943 45.5709C55.5516 45.2918 55.7463 44.9609 55.8654 44.6004C56 44.193 56 43.7361 56 42.8224Z" stroke="#404040" stroke-width="2" stroke-linecap="round" stroke-linejoin="round"/>
</svg>
